<?xml version="1.0" encoding="utf-8"?>
<!-- Generator: Adobe Illustrator 22.0.1, SVG Export Plug-In . SVG Version: 6.00 Build 0)  -->
<svg version="1.1" id="Layer_1" xmlns="http://www.w3.org/2000/svg" xmlns:xlink="http://www.w3.org/1999/xlink" x="0px" y="0px"
	 viewBox="0 0 32 32" style="enable-background:new 0 0 32 32;" xml:space="preserve">
	<style>
		@media (prefers-color-scheme: dark) {
      		.a { fill: #FFF }
    	}
  	</style>
	<path class="a" fill="#000" d="M7,21.3c-0.1,0-0.3-0.1-0.4-0.2c0,0,0,0,0,0c-0.5-0.7-0.4-1.6-0.4-2.4c-0.1-0.8-0.1-1.6-0.3-2.3C5.7,16,6,15.8,6.2,15.7
	c0.1-0.2,0.4-0.2,0.5,0c0.4,0.5,0.9,0.4,1.5,0.3c0.6-0.2,1.2,0.3,1.3,0.9c0,0.2-0.1,0.5-0.3,0.5c-0.2,0.1-0.5,0.1-0.6,0
	c-0.3-0.3-0.6-0.2-0.9-0.1c-0.1,0-0.1,0-0.2,0.1C7.5,18,7.6,18.5,7.7,19c0.1,0.7,0.2,1.7-0.1,2.1C7.4,21.3,7.2,21.2,7,21.3z
	 M16.6,17.7c-0.1-1.4-0.2-2.8-0.3-4.2c0-0.7-0.2-1-0.9-1.2c-0.5-0.1-0.9-0.2-1.2-0.7c-0.2-0.2-0.4-0.1-0.4,0.1
	c-0.1,0.5-0.5,0.8-0.8,1.1c-0.3,0.2-0.6,0.5-0.9,0.8c-0.7,0.8-0.6,1.1,0.2,1.7c0.8,0.6,0.8,0.8,0.1,1.4c-0.5,0.4-0.6,0.9-0.4,1.5
	c0.3,0.7,0.6,1.3,1.3,1.7c0.4,0.3,0.7,0.9,0.6,1.2c-0.1,0.2-0.4,0.4-0.6,0.4c-0.4-0.1-0.8-0.4-0.8-0.4c-0.2-0.2-0.5-0.5-0.7-0.7
	c-1.1-1.3-1.5-2.9-1.5-4.5c0-0.5,0-1.1,0.1-1.6c0-0.3,0.2-0.6,0.3-0.8c0.3-0.5,0.7-0.9,1-1.3c0.3-0.3,0.5-0.6,0.7-1
	c0.3-0.4,0.6-0.5,1-0.2c0.1,0.1,0.2,0.2,0.3,0.3c0.8-0.9,1.8-0.9,2.9-0.8c0.4,0,0.8,0,1.2,0.1c0.8,0.1,1.5,0.4,2,1.1
	c0.2,0.2,0.4,0.3,0.7,0.2c0.2-0.1,0.4-0.1,0.6-0.1c0.8,0,1.3,0.5,1.2,1.3c-0.1,0.8-0.2,1.6-0.3,2.4c-0.2,1.3-0.2,2.5,0.4,3.7
	c0,0,0,0.1,0,0.1c0.4,0.7,0.6,0.8,1.2,0.7c0.7-0.2,1.1-0.6,1.2-1.3c0.1-0.8,0.2-1.6,0.3-2.3c0.1-1.2,0.2-2.4,0-3.6
	c-0.1-0.5,0.2-0.8,0.7-0.8c0.3,0,0.5,0.2,0.5,0.5c0,0.9,0,1.9,0,2.8c0,0.3,0.1,0.5,0.1,0.7c0,0.1,0.2,0.2,0.3,0.3
	c0.1-0.1,0.2-0.2,0.2-0.3c0.2-0.8,0.4-1.6,0.6-2.5c0.2-0.8,0.4-1.5,0.6-2.3c0.2-0.5,0.4-0.7,0.9-0.5c0.7,0.2,1.1,0.5,1.2,1.2
	c0.5,2.6,1.1,5.2,1.7,7.8l0,0c0.1,0.5-0.2,1-0.7,1.1c0,0,0,0-0.1,0c-0.4,0.1-0.8-0.2-0.9-0.6c0-0.2,0-0.4-0.1-0.7
	c-0.1-0.6-0.3-1.2-0.5-1.7c-0.2-0.5-0.6-0.6-1.1-0.4c-0.5,0.2-0.7,0.6-0.8,1c-0.1,0.7-0.1,1.5-0.2,2.2c0,0.2,0,0.5-0.3,0.5
	c-0.3,0.1-0.5,0-0.7-0.3c-0.1-0.1-0.1-0.2-0.2-0.3c-0.3-0.4-0.5-0.4-0.9-0.2c-0.1,0.1-0.2,0.1-0.3,0.2c-0.4,0.4-1,0.6-1.5,0.7
	c-0.5,0.1-1.1,0.1-1.5-0.3c-0.7-0.8-1.2-1.6-1.4-2.7c-0.1-0.7-0.3-1.4-0.3-2.1c0-0.3,0-0.7,0.1-1c0.3-0.5,0.2-0.9,0.1-1.4
	c-0.2-0.5-0.5-0.9-0.8-1.3c-0.4-0.4-1.3-0.4-1.8-0.1c-0.1,0.1-0.2,0.2-0.2,0.3c-0.1,0.7-0.2,1.5-0.2,2.2c0,1.1,0.1,2.3,0.2,3.4
	c0,0.7,0,1.5-0.1,2.2c0,0.4-0.2,0.7-0.5,0.7c-0.3,0-0.6-0.3-0.6-0.7c0,0,0,0,0-0.1C16.8,19.8,16.7,18.7,16.6,17.7 M28.8,15.3
	c0,0.1,0.1,0.2,0.2,0.2c0.1,0,0.2-0.1,0.2-0.1c0-0.2,0-0.5-0.3-0.7C28.8,14.9,28.8,15.1,28.8,15.3z M1.9,16.3
	c-0.1,0.6,0.2,1.1,0.6,1.5c0.2,0.2,0.4,0.1,0.5,0c0.2-0.1,0.1-0.3,0-0.5C3,17.2,2.9,17.1,2.8,17c-0.1-0.1-0.2-0.2-0.1-0.3
	c0-0.1,0.2-0.2,0.3-0.2c0.8-0.1,1.4,0.2,1.8,0.9C5.1,18.2,5.1,19,5,19.8c-0.1,0.3-0.3,0.6-0.6,0.8c-0.3,0.3-0.8,0.2-1,0.2
	c-0.1,0-0.6-0.1-0.7-0.2c-1.5-0.6-2.1-1.8-2.5-3.2c-0.4-1.5,0-2.9,0.9-4.1c0.7-1,1.6-1.9,2.6-2.5c0,0,0,0,0,0c0.3-0.2,0.7-0.3,1-0.2
	c0,0,0.4,0.1,0.5,0.1c0.2,0.1,0.4,0.2,0.5,0.4c0.1,0.2,0.2,0.9-0.7,1.2c-0.4,0.1-0.9,0.4-1.2,0.6c-0.8,0.5-1.3,1.2-1.5,2.2
	C2.2,15.4,2,15.8,1.9,16.3z"/>
</svg>
