<?xml version="1.0" encoding="utf-8"?>
<!-- Generator: Adobe Illustrator 22.0.1, SVG Export Plug-In . SVG Version: 6.00 Build 0)  -->
<svg version="1.1" id="Layer_1" xmlns="http://www.w3.org/2000/svg" xmlns:xlink="http://www.w3.org/1999/xlink" x="0px" y="0px"
	 viewBox="0 0 57.8 20.2" style="enable-background:new 0 0 57.8 20.2;" xml:space="preserve">
<path d="M12.6,19.6c-0.3,0-0.5-0.1-0.7-0.4c0,0,0,0,0,0c-0.9-1.4-0.7-2.9-0.8-4.3C11,13.4,11,12,10.5,10.6c-0.2-0.6,0.4-0.8,0.7-1.2
	c0.3-0.3,0.7-0.3,0.9,0c0.7,0.9,1.6,0.8,2.6,0.5c1.1-0.3,2.2,0.5,2.3,1.6c0,0.3-0.2,0.8-0.5,1c-0.3,0.2-1,0.2-1.2,0
	c-0.5-0.5-1-0.4-1.5-0.1c-0.1,0.1-0.3,0.1-0.4,0.1c0.2,1,0.4,1.9,0.5,2.9c0.2,1.3,0.4,3.1-0.3,3.8C13.4,19.6,13,19.6,12.6,19.6z
	 M30.1,13.2c-0.2-2.5-0.4-5-0.5-7.5c-0.1-1.3-0.4-1.8-1.6-2.2c-0.8-0.2-1.6-0.4-2.2-1.2C25.4,1.9,25,2,24.9,2.5
	c-0.2,0.9-0.8,1.5-1.5,2c-0.6,0.4-1.2,0.9-1.6,1.4c-1.2,1.4-1.1,2,0.4,3.1c1.5,1.1,1.5,1.4,0.1,2.6c-0.9,0.8-1.1,1.6-0.7,2.7
	c0.5,1.3,1.2,2.3,2.3,3.1c0.8,0.5,1.3,1.6,1.1,2.1c-0.1,0.4-0.8,0.8-1.1,0.7c-0.8-0.1-1.5-0.7-1.5-0.7c-0.3-0.3-0.9-0.9-1.3-1.3
	c-1.9-2.4-2.6-5.2-2.7-8.2c0-1,0-2,0.1-3c0.1-0.5,0.3-1.1,0.6-1.5c0.6-0.8,1.2-1.6,1.9-2.4c0.5-0.6,0.9-1.1,1.3-1.8
	c0.5-0.7,1.2-0.9,1.8-0.3c0.2,0.1,0.3,0.3,0.5,0.5C26.3,0,28.1-0.1,30,0.1c0.7,0.1,1.4,0.1,2.1,0.1c1.5,0.1,2.7,0.8,3.7,2
	c0.3,0.4,0.7,0.6,1.2,0.4c0.3-0.1,0.7-0.1,1.1-0.2c1.5,0,2.4,0.8,2.2,2.3c-0.1,1.5-0.3,2.9-0.5,4.4c-0.4,2.3-0.4,4.6,0.8,6.7
	c0,0.1,0.1,0.1,0.1,0.2c0.6,1.2,1.1,1.5,2.1,1.3c1.3-0.3,2-1.1,2.1-2.3c0.1-1.4,0.3-2.8,0.5-4.2c0.3-2.1,0.3-4.3,0.1-6.4
	C45.3,3.5,45.8,3,46.6,3c0.5,0,0.9,0.3,0.9,0.9c0,1.7,0,3.4,0,5.1c0,0.5,0.1,0.9,0.2,1.4c0.1,0.2,0.3,0.4,0.5,0.5
	c0.1-0.2,0.3-0.4,0.3-0.6c0.4-1.5,0.7-3,1.1-4.4c0.4-1.4,0.8-2.7,1.2-4.1c0.3-1,0.7-1.2,1.7-1c1.2,0.3,1.9,0.9,2.2,2.2
	c1,4.7,2,9.4,3,14.1l0,0c0.2,0.9-0.4,1.8-1.3,2c0,0-0.1,0-0.1,0c-0.8,0.2-1.5-0.4-1.6-1.1c0-0.4-0.1-0.8-0.2-1.2
	c-0.2-1.1-0.5-2.1-0.9-3.1c-0.3-0.9-1.1-1.1-2-0.7c-0.8,0.3-1.3,1-1.4,1.9c-0.1,1.3-0.2,2.7-0.3,4c0,0.4-0.1,0.8-0.6,1
	c-0.5,0.1-0.9-0.1-1.2-0.5c-0.1-0.2-0.2-0.4-0.3-0.6c-0.5-0.7-0.9-0.8-1.7-0.4c-0.2,0.1-0.4,0.2-0.5,0.4c-0.8,0.7-1.7,1.1-2.8,1.2
	c-1,0.1-2,0.2-2.8-0.6c-1.3-1.4-2.2-2.9-2.5-4.8c-0.2-1.3-0.5-2.5-0.6-3.8c-0.1-0.6,0-1.3,0.2-1.8c0.5-0.9,0.4-1.6,0.1-2.5
	c-0.3-0.9-0.8-1.6-1.5-2.3c-0.7-0.7-2.4-0.8-3.2-0.1c-0.2,0.1-0.3,0.4-0.3,0.6c-0.1,1.3-0.3,2.7-0.3,4c0,2,0.3,4.1,0.3,6.1
	c0,1.3,0,2.6-0.1,3.9c0,0.8-0.4,1.2-1,1.2c-0.6,0-1-0.5-1.1-1.2c0,0,0-0.1,0-0.1C30.3,16.9,30.2,15,30.1,13.2 M52,8.7
	c0,0.1,0.2,0.3,0.3,0.3c0.1,0,0.4-0.1,0.4-0.2c0.1-0.4,0-0.9-0.5-1.2C52.1,8,52,8.4,52,8.7z M3.5,10.6c-0.3,1.1,0.3,1.9,1,2.7
	c0.3,0.3,0.6,0.2,0.9-0.1c0.3-0.3,0.3-0.5,0.1-0.8c-0.1-0.2-0.3-0.3-0.5-0.5c-0.1-0.2-0.3-0.4-0.2-0.6c0.1-0.2,0.3-0.3,0.5-0.3
	c1.4-0.2,2.5,0.4,3.2,1.7C9.2,14.1,9.3,15.6,9,17c-0.1,0.5-0.6,1-1,1.4c-0.6,0.5-1.5,0.4-1.8,0.3c-0.2,0-1-0.3-1.3-0.4
	C2.1,17.3,1,15,0.3,12.5C-0.5,9.7,0.4,7.2,2,5c1.3-1.8,2.9-3.3,4.8-4.5c0,0,0,0,0,0C7.2,0.1,8,0,8.6,0c0,0,0.7,0.1,0.9,0.2
	c0.3,0.1,0.8,0.4,0.9,0.7C10.6,1.3,10.7,2.5,9,3C8.2,3.2,7.5,3.6,6.8,4C5.3,4.9,4.4,6.3,4.1,8C3.9,8.9,3.7,9.8,3.5,10.6z"/>
</svg>
