<?xml version="1.0" encoding="utf-8"?>
<!-- Generator: Adobe Illustrator 22.0.1, SVG Export Plug-In . SVG Version: 6.00 Build 0)  -->
<svg version="1.1" id="Layer_1" xmlns="http://www.w3.org/2000/svg" xmlns:xlink="http://www.w3.org/1999/xlink" x="0px" y="0px"
	 viewBox="0 0 28.6 34.9" style="enable-background:new 0 0 28.6 34.9;" xml:space="preserve">
<path d="M24.2,23.1l-2.4-8.9l2.6-8.9l3.6,8.9L24.2,23.1z M21.4,13.1l-1.8-6.5l0.4-0.2l3.8-1.5L21.4,13.1z M19.5,21.8l1.9-6.5
	l2.2,8.2L19.5,21.8z M14.4,8.1l-4.2-1.8l4.2-1.7l4.2,1.8L14.4,8.1z M14.2,23.6L10,21.9l4.2-1.7l4.2,1.8L14.2,23.6z M19,21.6l-4.6-2
	l-0.1,0l-0.1,0l-4.7,1.9l-2-7.4l2.1-7.3l4.6,1.9l0.1,0l4.8-1.9l2,7.4L19,21.6z M19.3,6.1l-3.7-1.6l-1.1-0.4l-0.1,0l-0.1,0L9.4,6
	L5.3,4.3l9.2-3.7l9.1,3.8L19.3,6.1z M14.2,27.7l-9.1-3.8l4.2-1.7l4.7,2l0.2,0.1l0.4-0.1l4.6-1.8l4.2,1.8L14.2,27.7z M7.2,13L4.9,4.8
	l4.1,1.7L7.2,13z M4.8,23.3l2.4-8.2l1.8,6.5L4.8,23.3z M4.3,22.9L0.6,14l3.8-8.9l2.4,8.9L4.3,22.9z M4.1,24l10.1,4.2l10-4l0.1,0
	l4.3-10l-4.1-9.9l0-0.1L14.4,0L4.3,4L0,14L4.1,24z M22.2,30.2l-0.3,0c0,0-0.1,0-0.1,0c0,0,0,0.1,0,0.1l0,3.4c0,0.1,0,0.2-0.1,0.2
	c0,0.1-0.1,0.1-0.2,0.2c-0.1,0-0.2,0.1-0.2,0.1c-0.1,0-0.2,0-0.2-0.1c-0.1,0-0.1-0.1-0.2-0.2c0-0.1-0.1-0.2-0.1-0.2l0-3.4
	c0,0,0-0.1,0-0.1c0,0-0.1,0-0.1,0h-0.3c0,0-0.1,0-0.1,0c0,0,0,0.1,0,0.1l0,3.4c0,0.2,0,0.4,0.1,0.6c0.1,0.2,0.2,0.3,0.4,0.4
	c0.2,0.1,0.4,0.1,0.6,0.1c0.2,0,0.4,0,0.6-0.1c0.2-0.1,0.3-0.2,0.4-0.4c0.1-0.2,0.1-0.3,0.2-0.5l0-3.4c0,0,0-0.1,0-0.1
	C22.3,30.2,22.3,30.2,22.2,30.2 M28.2,31.7l-0.3,0c0,0-0.1,0-0.1,0c0,0,0,0.1,0,0.1l0,1.5c0,0,0,0.1,0,0.1c0,0,0,0,0,0.1l-0.5,0.8
	l-0.4-0.8c0,0,0,0,0-0.1c0,0,0-0.1,0-0.1l0-1.5c0,0,0-0.1,0-0.1c0,0-0.1,0-0.1,0l-0.3,0c0,0-0.1,0-0.1,0c0,0,0,0.1,0,0.1l0,1.5
	c0,0.1,0,0.2,0,0.3c0,0.1,0.1,0.2,0.1,0.3l0.5,0.9c0,0,0,0,0.1,0.1c0,0,0,0,0.1,0l0.5,0c0,0,0.1,0,0.1,0c0,0,0,0,0.1-0.1l0.5-0.9
	c0.1-0.1,0.1-0.2,0.1-0.3c0-0.1,0-0.2,0-0.3l0-1.5c0,0,0-0.1,0-0.1C28.3,31.7,28.2,31.7,28.2,31.7 M17.7,32.2l0-0.4c0,0,0-0.1,0-0.1
	c0,0,0,0,0-0.1l0.5-0.8l0.4,0.8c0,0,0,0,0,0.1c0,0,0,0.1,0,0.1l0,0.4L17.7,32.2z M17.2,34.8l0.3,0c0,0,0.1,0,0.1,0
	c0,0,0.1-0.1,0.1-0.1l0-1.9l1,0l0,1.9c0,0,0,0.1,0,0.1c0,0,0.1,0,0.1,0l0.3,0c0,0,0.1,0,0.1,0c0,0,0-0.1,0-0.1l0-2.9
	c0-0.1,0-0.2,0-0.3c0-0.1-0.1-0.2-0.1-0.3l-0.5-0.9c0,0,0,0-0.1-0.1c0,0-0.1,0-0.1,0l-0.5,0c0,0,0,0-0.1,0c0,0,0,0-0.1,0.1l-0.5,0.9
	c-0.1,0.1-0.1,0.2-0.1,0.3c0,0.1,0,0.2,0,0.3l0,2.9c0,0,0,0.1,0,0.1C17.2,34.8,17.2,34.8,17.2,34.8 M23.8,32.2l0-0.4
	c0,0,0-0.1,0-0.1c0,0,0,0,0-0.1l0.5-0.8l0.5,0.8c0,0,0,0,0,0.1c0,0,0,0.1,0,0.1l0,0.4L23.8,32.2z M23.3,34.9l0.3,0c0,0,0.1,0,0.1,0
	c0,0,0-0.1,0-0.1l0-1.9l1,0l0,1.9c0,0,0,0.1,0,0.1c0,0,0.1,0,0.1,0l0.3,0c0,0,0.1,0,0.1,0c0,0,0-0.1,0-0.1l0-2.9c0-0.1,0-0.2,0-0.3
	c0-0.1-0.1-0.2-0.1-0.3l-0.5-0.9c0,0,0,0-0.1-0.1c0,0-0.1,0-0.1,0l-0.5,0c0,0-0.1,0-0.1,0c0,0,0,0-0.1,0.1l-0.5,0.9
	c-0.1,0.1-0.1,0.2-0.1,0.3c0,0.1,0,0.2,0,0.3l0,2.9c0,0,0,0.1,0,0.1C23.2,34.9,23.2,34.9,23.3,34.9 M14.8,32.2l0-0.4
	c0,0,0-0.1,0-0.1c0,0,0,0,0-0.1l0.5-0.8l0.4,0.8c0,0,0,0,0,0.1c0,0,0,0.1,0,0.1v0.4L14.8,32.2z M14.3,34.8l0.3,0c0,0,0.1,0,0.1,0
	c0,0,0-0.1,0.1-0.1l0-1.9l1,0l0,1.9c0,0,0,0.1,0.1,0.1c0,0,0.1,0,0.1,0l0.3,0c0,0,0.1,0,0.1,0c0,0,0-0.1,0-0.1l0-2.9
	c0-0.1,0-0.2,0-0.3c0-0.1-0.1-0.2-0.1-0.3l-0.5-0.9c0,0,0,0-0.1-0.1c0,0,0,0-0.1,0l-0.5,0c0,0-0.1,0-0.1,0c0,0-0.1,0-0.1,0.1
	l-0.5,0.9c-0.1,0.1-0.1,0.2-0.1,0.3c0,0.1,0,0.2,0,0.3l0,2.9c0,0,0,0.1,0,0.1C14.2,34.8,14.3,34.8,14.3,34.8"/>
</svg>
