<?xml version="1.0" encoding="utf-8"?>
<!-- Generator: Adobe Illustrator 22.0.1, SVG Export Plug-In . SVG Version: 6.00 Build 0)  -->
<svg version="1.1" id="Layer_1" xmlns="http://www.w3.org/2000/svg" xmlns:xlink="http://www.w3.org/1999/xlink" x="0px" y="0px"
	 viewBox="0 0 46.5 36.1" style="enable-background:new 0 0 46.5 36.1;" xml:space="preserve">
<path d="M1.8,27.9c-1.2,0-1.5-0.7-1.5-1.7l0-2.6l1.1,0l0,2.3c0,0.7,0.2,1,0.7,1C2.7,27,3,26.7,3,25.8l0-2.2l1.1,0l0,4.1l-1.1,0
	l0-0.6C2.7,27.7,2.2,27.9,1.8,27.9 M6,25.7c0-0.8,0.3-1.2,0.9-1.2c0.5,0,0.7,0.3,0.7,1l0,2.3l1.1,0l0-2.6c0-1-0.3-1.7-1.5-1.7
	c-0.5,0-1,0.2-1.3,0.7l0-0.6l-1.1,0l0,4.1l1.1,0L6,25.7z M10.6,27.9l0-4.1l-1.1,0l0,4.1L10.6,27.9z M10.6,23.1l0-0.9l-1.1,0l0,0.9
	L10.6,23.1z M13.6,27.9l1.4-4.1l-1.1,0L13,26.6l-0.8-2.8l-1.2,0l1.4,4.2L13.6,27.9z M17.2,24.5c-0.7,0-0.9,0.6-0.9,0.9l1.8,0
	C18,24.9,17.7,24.6,17.2,24.5 M17.2,28.1c-1.3,0-2.1-0.9-2.1-2.2c0-1.2,0.9-2.2,2.1-2.2c1.4,0,2,1.2,2,2.5l-2.9,0
	c0,0.7,0.4,1.1,1,1.1c0.5,0,0.8-0.3,0.9-0.5l1,0C18.8,27.6,18.1,28.1,17.2,28.1 M20.9,26.1c0-0.7,0.3-1.3,1.1-1.3c0.1,0,0.3,0,0.4,0
	l0-1.1c-0.1,0-0.2,0-0.2,0c-0.5,0-1.1,0.4-1.3,0.9l0-0.8l-1.1,0l0,4.1l1.1,0L20.9,26.1z M25,25.5c-0.6-0.2-1.3-0.2-1.3-0.6
	c0-0.3,0.4-0.4,0.6-0.4c0.4,0,0.7,0.1,0.8,0.6l1.1,0c-0.1-1-0.9-1.3-1.8-1.3c-0.9,0-1.8,0.3-1.8,1.3c0,0.7,0.6,1,1.3,1.1
	c0.8,0.2,1.3,0.3,1.3,0.7c0,0.4-0.4,0.5-0.7,0.5c-0.4,0-0.9-0.2-0.9-0.7l-1.1,0c0,1.1,1,1.5,1.9,1.5c0.9,0,1.9-0.3,1.9-1.4
	C26.3,25.9,25.7,25.7,25,25.5 M28,28.1l0-4.1l-1.1,0l0,4.1L28,28.1z M28,23.3l0-0.9l-1.1,0l0,0.9L28,23.3z M30.7,24.7
	c-0.7,0-1,0.6-1,1.3c0,0.7,0.3,1.3,1,1.3c0.7,0,1-0.6,1-1.3C31.7,25.3,31.4,24.7,30.7,24.7 M30.4,28.2c-1.2,0-1.8-1.1-1.8-2.2
	c0-1.1,0.6-2.1,1.8-2.1c0.5,0,1,0.2,1.2,0.6l0-2.1l1.1,0l-0.1,5.7l-1.1,0l0-0.5C31.4,28,30.9,28.2,30.4,28.2 M36,26.1
	c-0.2,0.2-0.6,0.2-0.9,0.2c-0.3,0.1-0.7,0.2-0.7,0.6c0,0.4,0.3,0.5,0.7,0.5c0.9,0,0.9-0.7,0.9-0.9L36,26.1z M37.1,27.2
	c0,0.4,0,0.8,0.1,0.9l-1.1,0c0-0.1-0.1-0.3-0.1-0.4c-0.4,0.4-0.9,0.5-1.4,0.5c-0.8,0-1.4-0.4-1.4-1.3c0-0.9,0.7-1.2,1.4-1.2
	c0.7-0.1,1.3-0.1,1.3-0.5c0-0.5-0.3-0.6-0.7-0.6c-0.4,0-0.7,0.2-0.7,0.6l-1.1,0c0.1-1.1,1-1.4,1.9-1.4c0.8,0,1.8,0.2,1.8,1.2
	L37.1,27.2z M39.8,27.4c0.7,0,1-0.6,1-1.3c0-0.7-0.2-1.3-0.9-1.3c-0.7,0-1,0.6-1,1.3C38.8,26.7,39.1,27.4,39.8,27.4 M40.8,22.5
	l1.1,0l-0.1,5.7l-1.1,0l0-0.5c-0.3,0.4-0.7,0.6-1.2,0.6c-1.2,0-1.8-1.1-1.8-2.2c0-1.1,0.6-2.1,1.8-2.1c0.5,0,1,0.2,1.2,0.6
	L40.8,22.5z M45.3,25.7c-0.1-0.6-0.3-0.9-0.9-0.9c-0.7,0-0.9,0.6-0.9,0.9L45.3,25.7z M44.5,24c1.4,0,2,1.2,2,2.5l-3,0
	c0,0.7,0.4,1,1,1.1c0.5,0,0.8-0.3,0.9-0.5l1,0c-0.3,1-1,1.4-1.9,1.4c-1.3,0-2.1-0.9-2.1-2.2C42.4,24.9,43.3,23.9,44.5,24 M30.9,35.2
	c0.8,0,1-0.7,1-1.3c0-0.7-0.2-1.3-1-1.3c-0.8,0-1,0.7-1,1.3C29.9,34.5,30.2,35.2,30.9,35.2 M30.9,31.7c1.3,0,2.1,0.9,2.1,2.2
	c0,1.3-0.8,2.2-2.1,2.2c-1.3,0-2.1-0.9-2.1-2.2C28.8,32.5,29.7,31.7,30.9,31.7 M27.2,32.5l0-0.8l-1.1,0l0,4.1l1.1,0l0-1.9
	c0-0.7,0.3-1.3,1.1-1.3c0.1,0,0.3,0,0.4,0l0-1.1c-0.1,0-0.2,0-0.2,0C28,31.7,27.4,32,27.2,32.5 M25.4,31.1l0-0.9l-1.1,0l0,0.9
	L25.4,31.1z M25.3,35.9l0-4.1l-1.1,0l0,4.1L25.3,35.9z M22.5,33.3c-0.1-0.6-0.3-0.9-0.9-0.9c-0.7,0-0.9,0.5-0.9,0.9L22.5,33.3z
	 M21.7,31.6c1.4,0,2.1,1.2,2,2.5l-2.9,0c0,0.7,0.4,1.1,1,1.1c0.4,0,0.8-0.3,0.9-0.5l1,0c-0.3,1-1,1.4-1.9,1.4
	c-1.3,0-2.1-0.9-2.1-2.2C19.6,32.5,20.5,31.6,21.7,31.6 M17.5,34.5l-0.8-2.8l-1.2,0l1.4,4.2l1.2,0l1.4-4.1l-1.1,0L17.5,34.5z
	 M13.9,33.8c-0.2,0.2-0.6,0.2-0.9,0.2c-0.3,0.1-0.7,0.2-0.7,0.6c0,0.4,0.3,0.5,0.7,0.5c0.9,0,0.9-0.7,0.9-0.9L13.9,33.8z M15,34.9
	c0,0.4,0,0.8,0.1,0.9l-1.1,0c0-0.1-0.1-0.3-0.1-0.4c-0.4,0.4-0.9,0.5-1.4,0.5c-0.8,0-1.4-0.4-1.4-1.3c0-0.9,0.7-1.2,1.4-1.2
	c0.7-0.1,1.3-0.1,1.3-0.5c0-0.5-0.3-0.6-0.7-0.6c-0.4,0-0.7,0.2-0.7,0.6l-1.1,0c0.1-1.1,1-1.4,1.9-1.4c0.8,0,1.8,0.2,1.8,1.2
	L15,34.9z M7.6,33.2c-0.1-0.6-0.3-0.9-0.9-0.9c-0.7,0-0.9,0.5-0.9,0.9L7.6,33.2z M6.8,31.5c1.4,0,2.1,1.2,2,2.5l-2.9,0
	c0,0.7,0.4,1.1,1,1.1c0.4,0,0.8-0.3,0.9-0.5l1,0c-0.3,1-1,1.4-1.9,1.4c-1.3,0-2.1-0.9-2.1-2.2C4.7,32.4,5.6,31.4,6.8,31.5 M2.1,34.9
	c0.7,0,1-0.6,1-1.3c0-0.7-0.2-1.3-1-1.3c-0.7,0-1,0.6-1,1.3C1.1,34.2,1.4,34.9,2.1,34.9 M3.1,29.9l1.1,0l-0.1,5.7l-1.1,0l0-0.5
	c-0.3,0.4-0.7,0.6-1.2,0.6c-1.2,0-1.8-1.1-1.8-2.2c0-1.1,0.6-2.1,1.8-2.1c0.5,0,1,0.2,1.2,0.6L3.1,29.9z M15.4,11.5
	c0-0.2-0.2-0.4-0.4-0.4l-3.4,0c-0.7,0-1.2,0.4-1.5,0.9c-0.2,0.3-0.4,0.4-0.7,0.4l-0.3,0c-0.3,0-0.5-0.2-0.7-0.4
	c-0.3-0.6-0.9-1-1.5-1l-3.7,0c-0.2,0-0.4,0.2-0.4,0.4l0,5c0,0.2,0.2,0.4,0.4,0.4l3.6,0c0.7,0,1.2,0.4,1.5,0.9
	c0.2,0.3,0.4,0.4,0.7,0.5l0.3,0c0.3,0,0.5-0.2,0.7-0.4c0.3-0.6,0.9-1,1.6-1l3.4,0c0.2,0,0.4-0.2,0.4-0.4L15.4,11.5z M17.9,16.9
	c0,1.4-1.2,2.5-2.5,2.5L2.8,19.3c-1.4,0-2.5-1.2-2.5-2.6L0.4,4c0-1.3,0.9-2.3,2.1-2.5c0.3,0,0.5,0.1,0.7,0.3l1.9,2.4
	c0.3,0.3,0.7,0.5,1.1,0.5c0.8,0,1.5-0.7,1.5-1.5l0-0.8l0-2C7.7,0.1,7.8,0,8,0c1.6,0.1,2.8,1.5,2.8,3.1c0,0.9,0.7,1.6,1.5,1.6
	c0.4,0,0.8-0.2,1.1-0.4l1.9-2.4c0.1-0.2,0.3-0.3,0.6-0.3C17.2,1.8,18,2.9,18,4.2L17.9,16.9z"/>
</svg>
