<?xml version="1.0" encoding="utf-8"?>
<!-- Generator: Adobe Illustrator 22.0.1, SVG Export Plug-In . SVG Version: 6.00 Build 0)  -->
<svg version="1.1" id="Layer_1" xmlns="http://www.w3.org/2000/svg" xmlns:xlink="http://www.w3.org/1999/xlink" x="0px" y="0px"
	 viewBox="0 0 367.7 367.9" style="enable-background:new 0 0 367.7 367.9;" xml:space="preserve">
<path d="M61.7,132.6c0,1.4,0,2.7,0,4.1c0,1.4,0.8,2.2,2.3,2.2c2.1,0,4.1,0.1,6.2,0c2.6-0.2,4.8-2.6,4.9-5.3c0.1-2.5,0.4-5.1-2.5-6.4
	c-1-0.4-2-0.9-3-1.1c-1.6-0.2-3.2-0.1-4.9-0.1c-1.4,0-2.3-0.6-2.4-2.1c0-2.8,0-5.6,0-8.5c0-1.5,0.9-2.1,2.3-2.1c1.2,0,2.4-0.2,3.6,0
	c2.5,0.4,4.3-0.8,5.9-2.4c0.6-0.6,0.8-1.7,0.9-2.5c0.1-2,0-3.9,0.1-5.9c0-0.4,0.4-0.9,0.6-1.3c0.3,0.2,0.7,0.5,1,0.7
	c1.9,1.8,6.6,1.3,8.7-0.3c2.3-1.8,2.7-3.9,2.5-6.5c-0.1-1.6,0-3.3,0-4.9c0-1.8,0.9-2.6,2.7-2.6c2.3,0,4.6,0,6.9,0
	c3-0.1,5.1-2.1,5.2-5.1c0-2.1,0.5-4.2-1.3-6.1c-0.8-0.8,0.1-1.4,0.9-1.5c1.6-0.1,3.2-0.1,4.9-0.1c4.2-0.1,6.3-2.1,6.3-6.2
	c0-1,0-2.1,0-3.1c0.1-3.1,0.4-3.5,3.4-3.5c2.1,0,4.1-0.1,6.2,0c2.2,0.1,2.6,0.6,2.7,2.8c0.1,1.5,0,3.1,0,4.6c0.1,3.4,2,5.4,5.5,5.3
	c1.7,0,3.6-0.2,5.1-0.9c2.4-1,2.9-3.2,2.8-5.7c-0.2-6.4,0.3-6.2-6.2-6.2c-1.5,0-2.9,0-4.4,0c-1.4,0-2.2-0.8-2.3-2.2
	c0-1.9,0-3.8,0-5.6c0-1.4,0.8-2.3,2.2-2.3c2.6,0,5.1,0,7.7,0c1.6,0,2.3,0.9,2.3,2.5c0,0.9,0,1.9,0,2.8c0.1,2.8,2.1,4.8,4.9,4.9
	c1.1,0.1,2.2,0,3.3,0c2.6,0.1,4.7,0,5.7-3.3c0.5-1.6,1.6-3.1,1.6-4.9c0-1.3,0.9-2,2.2-2c0.6,0,1.2,0,1.8-0.1
	c4.4-0.1,6.7-2.4,6.7-6.7c0-1.2,0-2.4,0-3.6c0-1.7,0.9-2.5,2.6-2.5c2.4,0,4.8,0,7.2,0c1.7,0,2.5,0.9,2.5,2.6c0,1.2,0.2,2.4,0,3.6
	c-0.4,2.5,0.9,4.4,2.6,5.8c0.8,0.7,2.4,0.7,3.6,0.8c3.7,0.5,5.2-1,7.4-5.1c1.1-2,2.1-3.8,2.1-6.1c0-0.5,1.1-1.4,1.8-1.4
	c2-0.2,4.1-0.1,6.2-0.1c1.3,0,2,0.9,2,2.2c0,1.5-0.1,2.9,0.1,4.4c0.2,1.2,0.3,2.6,1,3.6c1.8,2.6,5.3,3.5,8.3,2.5
	c1.6-0.5,3.9-3.7,4-5.5c0-1.6,0-3.3,0.1-4.9c0-1.4,0.8-2.2,2.2-2.3c2,0,3.9-0.1,5.9,0c1.6,0.1,3.6,2,4,3.6c0,0.2,0,0.3,0.1,0.5
	c0.7,5.4,0.1,6.1-5.3,6.1c-2.2,0-4.4-0.4-6.1,1.8c-1.1,1.5-2,6.2-1,8c1.1,2,2.8,3.5,5.4,3.1c1.6-0.2,3.4-0.3,4.9-1
	c2.2-1,2.9-3,2.8-5.5c-0.2-3.5,0.3-3.8,3.8-3.8c2,0,3.9,0,5.9,0c1.7,0,2.5,0.9,2.5,2.5c0,0.9,0,1.7,0,2.6c0.1,3.1,2.1,5,5.2,5.1
	c1.6,0,3.3,0,4.9,0c2.2,0.1,2.6,0.6,2.8,2.8c0,0.5,0.1,1,0,1.5c-0.7,3,1.9,5,2.6,7.5c0.1,0.5,1.4,0.8,2.2,0.9c1.7,0.1,3.4,0,5.1,0.1
	c2.4,0.1,2.8,0.5,2.9,2.9c0.1,2.3,0,4.6,0.1,6.9c0.1,2.4,0.6,2.8,2.9,2.9c2.5,0.1,5,0.1,7.4,0c2.4-0.1,2.9-0.5,2.9-2.9
	c0.1-2.3,0-4.6,0.1-6.9c0.1-2.4,0.5-2.8,2.9-2.9c1.1,0,2.2,0,3.3,0c3.9,0,6,2.1,6.1,5.9c0,1.4,0,2.7,0,4.1c-0.1,2.2-0.6,2.6-2.8,2.7
	c-1.3,0.1-2.6,0-3.9,0c-4.4,0-6.1,1.7-6.1,6.3c0,1.3,0,2.6,0,3.9c0,1.8,0.8,2.8,2.6,2.7c1.6,0,3,0.2,4.1,1.7
	c0.2,0.3,1.3,0.1,1.9-0.2c0.9-0.4,1.6-1.3,2.5-1.4c1.7-0.3,2.3-1.3,2.3-2.8c0-2.6,0-5.1,0.1-7.7c0-0.5,0.4-1.1,0.6-1.6
	c0.4,0.3,0.7,0.6,1.1,0.8c0.8,0.4,1.7,0.9,2.5,0.9c1.8,0.2,3.6,0.1,5.4,0.1c1.6,0,2.6,0.7,2.6,2.4c0,1.8,0,3.6,0,5.4
	c0,1.6-0.9,2.3-2.4,2.4c-1.6,0-3.3,0-4.9,0c-3.6,0.1-5.5,2-5.5,5.6c0,1.5-0.1,3.2,0.6,4.5c0.9,1.7,2.5,3,4.8,2.8
	c1.6-0.1,3.2,0,4.9,0c1.7,0,2.5,0.8,2.5,2.5c0,1.8,0,3.6,0.1,5.4c0.1,2.8,2.1,4.8,4.9,4.9c1.7,0.1,3.4-0.1,5.1,0.1
	c0.8,0.1,2.1,0.5,2.4,1c0.3,0.8,0,2-0.5,2.8c-1.4,2.3-1.4,2.8,0,5c1.1,1.6,1.8,3.5,2.9,4.9c0.6,0.8,1.9,1.3,3,1.5
	c1.7,0.3,3.4,0.1,5.1,0.1c1.6,0,2.6,0.7,2.6,2.4c0,1.8,0,3.6,0,5.4c0,1.6-0.9,2.3-2.4,2.4c-1.5,0-3.1,0-4.6,0
	c-3.9,0.1-5.7,1.9-5.8,5.8c0,1.4,0,2.7,0,4.1c0.1,2.3,0.6,2.8,3,2.9c2.3,0.1,4.6,0,6.9,0.1c2.3,0.1,2.8,0.5,2.9,2.7
	c0.1,2.5,0,5,0,7.4c0,1.8-0.9,2.6-2.7,2.6c-2.4,0-4.8,0-7.2,0c-2.4,0.1-2.8,0.5-2.9,2.9c-0.1,2.2-0.1,4.5,0,6.7
	c0.1,2.7,0.5,3.2,3.1,3.2c2.2,0.1,4.5,0,6.7,0c2.4,0.1,2.9,0.5,3,2.8c0.1,2.4,0.1,4.8,0,7.2c-0.1,2.2-0.6,2.6-2.8,2.7
	c-1.3,0.1-2.6,0-3.9,0c-4.4,0-6.1,1.7-6.1,6.3c0,1.2,0,2.4,0,3.6c-0.1,2.4-0.5,2.9-2.9,2.9c-1.6,0.1-3.3,0-4.9,0
	c-2.4,0.1-2.9,0.5-3,2.9c-0.1,2.4-0.1,4.8,0,7.2c0.1,2.2,0.6,2.7,2.8,2.8c1.8,0.1,3.6,0.1,5.4,0.1c1.7,0,2.5,0.8,2.5,2.5
	c0,2.6,0,5.1,0,7.7c0,1.7-0.8,2.5-2.5,2.5c-1.8,0-3.6,0-5.4,0c-1.6,0-2.6,0.5-2.9,2.2c-0.1,0.6-0.3,1.2-0.7,1.6
	c-1.5,1.4-1.6,3.2-1.1,4.8c0.6,2.1,1.6,4.1,2.6,6c0.3,0.5,1.3,0.6,2,0.8c0.5,0.1,1,0,1.5,0.1c4.3,0.1,4.7,0.6,4.5,5
	c-0.1,1.8-0.8,2.7-2.7,2.7c-0.6,0-1.2,0-1.8,0c-3.2,0-3.4-0.3-3.8-3.4c-0.1-1.1-0.7-2.3-1.4-3.1c-1-1.2-2.3-2.3-3.7-3.1
	c-0.6-0.4-1.8-0.7-2.4-0.4c-2.3,1.1-4.6,2.4-6.7,3.9c-1.8,1.4-1.5,3.7-0.8,5.5c0.6,1.7,2,3.2,4.2,3.2c1.8,0,3.6,0,5.4,0.1
	c2.3,0.1,2.8,0.5,2.9,2.7c0.1,2.5,0,5,0,7.4c0,1.6-0.7,2.6-2.4,2.6c-2.5,0-5,0-7.4,0c-1.6,0-2.3-0.8-2.4-2.4c0-2.5,0-5-0.1-7.4
	c-0.1-2.4-0.5-2.8-2.9-2.9c-1.7-0.1-3.4-0.1-5.1,0c-3.3,0.1-5.2,2-5.3,5.3c0,1.7,0,3.4,0,5.1c0,1.6-0.8,2.4-2.4,2.4
	c-1.6,0-3.3,0-4.9,0c-3.6,0.1-5.5,2-5.5,5.6c0,1.5,0,3.1,0,4.6c0,1.8,0.9,2.7,2.7,2.7c2.4,0,4.8,0,7.2,0c2.4,0.1,2.9,0.5,2.9,2.9
	c0.1,2.5,0,5,0,7.4c0,1.6-0.8,2.4-2.4,2.4c-2.5,0-5,0-7.4,0c-1.7,0-2.4-1-2.4-2.6c0-1.6,0-3.3,0-4.9c-0.1-2.5-2.2-4.9-4.7-5.2
	c-3.1-0.4-5.7,1-6.6,3.6c-0.3,0.9-0.8,1.9-1.3,2.7c-1,1.6-1,3,0.2,4.4c1.1,1.2,2.1,2.6,3.3,3.6c0.8,0.6,2,1,3,1
	c3.1,0.3,3.4,0.5,3.4,3.7c0,0.8,0.1,1.6-0.2,2.3c-0.2,0.6-0.8,1.4-1.2,1.4c-1.8,0.2-3.6,0.2-5.3,0c-0.5-0.1-1.1-1-1.3-1.6
	c-0.2-0.8-0.1-1.7-0.2-2.5c-0.1-3-0.1-3-2.9-3.9c-0.5-0.1-1-0.3-1.4-0.7c-1.3-1.4-3-1.6-4.5-1.2c-2.1,0.6-4,1.6-5.9,2.7
	c-0.5,0.3-0.6,1.4-0.7,2.1c-0.1,1.8-0.1,3.6-0.1,5.4c0,1.7-0.8,2.6-2.5,2.6c-2.4,0-4.8,0-7.2,0c-1.9,0-2.6-0.9-2.6-2.7
	c0-1.7,0-3.4-0.1-5.1c-0.1-2.2-0.7-2.8-2.8-2.8c-2.6-0.1-5.3,0-8,0c-1.7,0-2.5,0.8-2.5,2.5c0,1.9,0,3.8-0.1,5.6
	c0,1.7-0.8,2.5-2.5,2.5c-1.5,0-3.1,0-4.6,0c-3.8,0.1-5.6,1.9-5.7,5.7c0,1.6,0,3.3-0.1,4.9c0,1.4-0.8,2.2-2.2,2.2c-2.6,0-5.1,0-7.7,0
	c-1.6,0-2.3-1-2.3-2.5c0-2.4,0-4.8-0.1-7.2c-0.1-2.5-0.5-3-3-3.1c-2.5-0.1-5-0.1-7.4,0c-2.3,0.1-2.8,0.6-2.9,3
	c-0.1,2.3,0,4.6-0.1,6.9c-0.1,2.3-0.5,2.8-2.7,2.9c-2.3,0.1-4.6,0-6.9,0c-1.8,0-2.7-0.9-2.6-2.7c0-2.1,0-4.3,0-6.4
	c-0.1-3.1-0.5-3.6-3.5-3.7c-1.5,0-3.1-0.1-4.6,0c-3.1,0.1-5.1,2.1-5.2,5.1c-0.1,1.8,0,3.6-0.1,5.4c0,1.4-0.8,2.2-2.2,2.2
	c-1.9,0-3.8,0-5.6,0c-1.6,0-2.3-1-2.3-2.5c0-1.7,0-3.4-0.1-5.1c-0.1-2.7-1.8-4.6-4.4-5.2c-0.7-0.2-1.5-0.5-2-0.9
	c-2.3-2.1-4.5-2.2-6.9-0.1c-1.1,0.9-1.4,0.3-1.4-0.6c-0.1-1.9-0.1-3.8-0.1-5.6c-0.1-3-2.3-5.3-5.3-5.4c-1.6-0.1-3.3-0.1-4.9-0.1
	c-1.8,0-2.7-0.9-2.6-2.7c0-1.2,0-2.4,0-3.6c0-4.5-2-6.5-6.5-6.5c-1.8,0-3.5-0.3-5,1.2c-1.2,1.3-1.9,2.5-1.8,4.3c0.1,1.6,0,3.3,0,4.9
	c0,1.6-0.8,2.4-2.4,2.4c-1.8,0-3.6,0-5.4,0c-1.6,0-2.4-0.8-2.4-2.4c0-1.7,0.1-3.4-0.1-5.1c-0.1-1.1-0.4-2.2-0.9-3.1
	c-0.8-1.5-0.7-2,0.9-2.1c2.4-0.1,4.8-0.2,7.2,0c2.5,0.2,4.2-1.1,5.1-3.1c0.9-1.9,0.9-4-0.6-5.8c-0.3-0.4-0.7-0.9-0.7-1.3
	c-0.2-2.4-1.8-2.8-3.8-2.8c-1.5,0.1-2.9,0-4.4,0c-3.4,0.1-5.3,2-5.4,5.4c0,1.6,0,3.3,0,4.9c0,1.5-0.7,2.4-2.3,2.5
	c-1.9,0-3.8,0.1-5.6,0c-1.9-0.1-4.1-2.4-4.2-4.5c-0.1-2-0.1-3.9,0-5.9c0-1.6,1-2.3,2.5-2.3c2.4,0,4.8,0,7.2-0.1c2.6-0.1,3-0.5,3.1-3
	c0.1-2.3,0.1-4.6,0-6.9c-0.1-2.3-0.6-2.8-3-2.9c-2.3-0.1-4.6,0-6.9-0.1c-2.4-0.1-2.8-0.5-2.9-2.9c-0.1-1.8,0-3.6-0.1-5.4
	c0-1.4-0.7-2.2-2.1-2.5c-1-0.2-1.8-0.9-2.7-1.2c-1.4-0.4-2.8-0.7-4.2-0.8c-3.5-0.2-3.8-0.4-3.8-3.9c0-0.9,0-1.9,0-2.8
	c0-4-2.1-6.1-6.1-6.1c-4.6-0.1-4.6-0.1-4.6-4.8c0-1.8,0-3.6,0-5.4c0-1.7,0.8-2.6,2.5-2.6c0.9,0,1.7,0,2.6,0c3.5-0.1,5.6-2.3,5.7-5.8
	c0.1-2.5-0.2-4.8-2.7-6.1c-0.9-0.5-1.9-0.9-2.8-0.9c-1.7-0.2-3.4,0-5.1-0.1c-1.9-0.1-2.1-0.6-1.1-2.1c1.7-2.6,1.2-7.4-1.1-9.4
	c-0.8-0.7-1.9-1.1-2.9-1.2c-1.9-0.2-3.8-0.1-5.6-0.1c-1.4,0-2.2-0.8-2.2-2.2c0-1.8,0-3.6,0-5.4c0-1.7,0.8-2.6,2.5-2.5
	c1.6,0,3-0.1,4-1.7c0.3-0.4,1-0.6,1.5-0.8c3.6-0.9,4.8-2.4,4.7-6.1c0-1.7,0.3-3.4-1.1-4.8c-1.3-1.3-2.6-2.1-4.5-2
	c-1.5,0.1-3.1,0-4.6,0c-1.6,0-2.6-0.7-2.6-2.4c0-2.7,0-5.3,0-8c0-1.6,0.9-2.3,2.4-2.3c1.5,0,2.9,0,4.4,0c4.2,0,5.9-1.8,6-5.9
	c0-0.7,0-1.4,0-2.1c0-1.4,0.7-2.3,2.2-2.3c1.8,0,3.4-0.1,4.4-1.9c0.2-0.4,0.9-0.6,1.4-0.6c2.3-0.2,2.8-1.6,2.7-3.5
	c0-1.1,0-2.2,0-3.3c0-3.8-2.1-5.9-6-6c-4.8-0.1-4.8-0.1-4.8-4.9c0-1.7,0-3.4,0-5.1c0-1.8,0.7-2.7,2.6-2.7c1.7,0,3.4,0,5.1,0
	c1.7,0,2.5,0.9,2.5,2.6C61.6,130.1,61.6,131.4,61.7,132.6C61.6,132.6,61.7,132.6,61.7,132.6z M235.5,62C235.5,62,235.5,62,235.5,62
	c-1.4,0-2.9,0-4.3,0c-1.7,0-2.5,0.8-2.5,2.5c0,2-0.1,3.9,0.1,5.9c0.1,0.9,0.5,1.8,1.1,2.5c1.7,2,6.5,3,8.7,1.6
	c1.4-0.9,3.4-1.6,3.4-3.8c0.1-2.1,0-4.3,0-6.4c0-1.4-0.9-2.2-2.3-2.2C238.2,62,236.8,62,235.5,62z M67.6,228.9c-1.1,0-1.8,0-2.6,0
	c-2.8,0.1-3.3,0.5-3.3,3.3c0,2.3,0,4.6,0,6.9c0,1.6,0.8,2.6,2.5,2.6c2,0,4.2,0.4,6.1-0.1c1.6-0.5,3.4-1.7,4.4-3.1
	c1.4-2,0-6.3-1.7-8.1C71.3,228.6,69.3,229,67.6,228.9z M80.6,113.3c-1.4,0-2.4,0-3.3,0c-2.2,0.1-2.7,0.6-2.8,2.8
	c-0.1,1.8-0.1,3.6,0,5.4c0.1,0.9,0.5,2,1.2,2.7c2.3,2.6,7.2,2.8,9.9,0.6c3.2-2.7,3.1-7.3,0-10.2C83.9,113,82,113.5,80.6,113.3z
	 M118.6,74.5c0,0.1,0,0.2-0.1,0.3c-0.8,0-1.5,0-2.3,0c-2.7,0.1-3.1,0.5-3.2,3.1c0,1.3,0.1,2.6,0,3.8c-0.3,2.6,0.9,4.6,3,5.4
	c2.3,0.9,5.1,1.1,7.4-0.3c1.1-0.6,2.2-1.7,2.7-2.9c1.3-3,0.1-6.7-2.7-8.4C122.1,74.8,120.2,74.9,118.6,74.5z M171.4,49.1
	c-2.2,0.1-3.8,0-5.4,1.4c-2.3,2.1-1.6,4.5-1.6,6.9c0,2.4,2.2,4.3,4.6,4.6c3.2,0.4,5.2-2.2,8-2.8c0.3-0.1,0.6-1,0.6-1.6
	c0.1-1.4,0.1-2.9,0-4.3c-0.1-0.6-0.3-1.4-0.8-1.8C175.2,50.1,173.5,48.5,171.4,49.1z M55.1,164.3c-1.4,0.4-2.8,0.5-4,1.2
	c-3.3,1.8-3.3,9.4,0,11.1c1.5,0.7,3.4,0.7,5.1,0.9c1.8,0.2,3.2-0.4,3.5-2.5c0.1-0.6,0.8-1.2,1.3-1.8c1.6-1.7,1.4-5-0.3-6.6
	C59.2,165.2,57.5,164.3,55.1,164.3z M306.1,132.7C306.1,132.7,306.1,132.7,306.1,132.7c0-1.4,0-2.7,0-4.1c0-1.4-0.7-2.3-2.1-2.3
	c-2.3,0-4.6,0-6.9,0c-1.3,0-2.1,0.7-2.1,2.1c-0.1,2.8,0,5.6,0,8.4c0,1.4,0.8,2.2,2.3,2.2c2.2,0,4.4,0,6.7,0c1.6,0,2.3-1,2.3-2.5
	C306.1,135.2,306.1,134,306.1,132.7z M293.2,119.3c0-1.2,0-1.9,0-2.7c-0.1-2.6-0.6-3.2-3.2-3.3c-1.7-0.1-3.4-0.1-5.1,0
	c-2.6,0.1-5.7,5.2-4.8,7.6c0.2,0.4,0.4,0.7,0.7,1c1,1,2,2.1,3.1,3.1c1.5,1.4,4.7,1.4,6.4,0.4C292.9,123.9,293.7,121.7,293.2,119.3z
	 M132.3,305.9C132.3,305.9,132.3,305.9,132.3,305.9c1.5,0,3.1,0,4.6,0c1.4,0,2.2-0.8,2.2-2.2c0-2,0-4.1,0-6.1c0-1.6-1-2.3-2.5-2.3
	c-2.8,0-5.6,0-8.4,0c-1.4,0-2.3,0.7-2.3,2.2c0,2.1,0,4.3,0,6.4c0,1.5,0.9,2.1,2.3,2.2C129.6,305.9,130.9,305.9,132.3,305.9z
	 M118.3,293c1.1,0,2.2,0.1,3.3,0c2.2-0.3,3.8-1.8,4.5-3.7c0.7-1.9,0.8-4.1-1.5-5.4c-0.7-0.4-1.2-1.2-1.8-1.7c-2.7-2.5-3-2.5-6.1-0.6
	c-0.4,0.2-0.8,0.5-1.2,0.5c-2.2,0.2-2.5,1.6-2.5,3.4c0,0.8,0,1.5,0,2.3C113,293.1,113,293.1,118.3,293z M203.4,55.8
	c0-4.6-2.5-7.2-6.9-6.5c-2.1,0.4-4,1.7-5.9,2.7c-0.3,0.2-0.5,0.9-0.5,1.4c-0.2,2-0.2,3.9,1.7,5.3c1.5,1.1,2.7,2.7,4.4,3.2
	C199.4,62.9,204.3,59.9,203.4,55.8z M55.3,203.2c2.2,0.6,4-0.6,5.7-2.2c1.3-1.2,1.6-4.8,0.4-6.1c-1.4-1.4-2.8-2.7-4.3-3.9
	c-1.2-1-4.9-1-5.5,0c-1.1,1.9-2.1,3.8-2.6,5.9C48,200.4,51,203.9,55.3,203.2z M146.3,318.7c0.9,0,1.9,0.1,3,0
	c2.2-0.1,2.7-0.6,2.8-2.8c0.1-1.9,0-3.8,0-5.6c0-1.4-0.8-2.2-2.2-2.2c-2.2,0-4.4-0.1-6.7,0c-2.1,0-3.4,1.6-4,3.1
	c-0.7,1.8-0.7,3.7,0.6,5.6C141.4,319,143.8,318.8,146.3,318.7z M236.3,295.1c-0.9,0-1.9,0-2.8,0c-3,0.1-4.9,2.2-4.9,5.4
	c0,3.1,1.9,5.3,4.9,5.4c1.1,0.1,2.2,0,3.3,0c5.1,0,5.1,0,5.1-5.1C241.9,295.1,241.9,295.1,236.3,295.1z M313,151.9c1,0,2,0.1,3.1,0
	c2.2-0.1,2.7-0.6,2.8-2.8c0.1-1.6,0.1-3.2,0-4.9c0-2.2-2-4.7-4.2-5c-1.9-0.3-3.7-0.3-5.5,1.3c-1.9,1.8-1.6,3.8-1.6,5.9
	C307.6,151.9,307.6,151.9,313,151.9z M300.4,241.7c0.9,0,1.9,0,2.8,0c2.3-0.1,2.8-0.6,2.9-3c0.1-1.4,0-2.7,0-4.1
	c0-2.6-1.6-4.8-3.9-5.6c-2.4-0.8-5.5,0-6.7,2.3c-0.7,1.3-0.7,3.1-0.7,4.7C294.7,241.7,294.8,241.7,300.4,241.7z M249,74.8
	c-0.9,0-1.9,0-2.8,0c-2.2,0.1-2.6,0.6-2.7,2.8c-0.1,1.7,0,3.4,0,5.1c-0.1,2.3,1.5,3.8,3.2,4.5c1.8,0.7,3.7,0.6,5.6-0.7
	c2.3-1.5,2.6-3.5,2.5-5.9C254.7,74.8,254.7,74.8,249,74.8z M80.5,254.6c2.1,0.3,4.2-0.2,6.1-2.1c1.6-1.6,1.6-5,0-6.6
	c-2-2.1-4.4-2.2-7-2.1c-5.1,0.1-5.1,0-5.1,5.2C74.5,254.6,74.5,254.6,80.5,254.6z M312.6,164.7c-0.8,0-1.2,0-1.6,0
	c-2.9,0.1-3.3,0.5-3.4,3.3c0,1.7-0.1,3.4,0,5.1c0.1,2.3,2.2,4.3,4.5,4.5c4.2,0.4,6.8-2,6.7-6.2c0-1.4-0.1-3.1-0.8-4.1
	C316.6,165.6,314.9,164,312.6,164.7z M184.7,72.7c1.2,0,2.4,0.1,3.6,0c0.7-0.1,1.5-0.5,1.9-1.1c1.2-1.8,0.1-6.4-1.4-7.9
	c-2.1-2.3-4.7-1.6-7.2-1.6c-2.1,0-3.4,1.5-4,3.1c-0.7,1.8-0.7,3.7,0.6,5.6C179.9,73.1,182.3,72.8,184.7,72.7z M170,307.4
	c-0.1,0.2-0.1,0.4-0.2,0.6c-1.1,0-2.2-0.1-3.3,0c-0.6,0.1-1.3,0.4-1.7,0.9c-0.9,1.1-0.6,6.4,0.4,7.6c1.7,2.1,6.8,3.1,9.1,1.8
	c4.2-2.2,4.7-6.3,0.9-9C173.9,308.2,171.8,308,170,307.4z M72.5,184.9c0-0.7-0.1-1.4,0-2c0.2-2.5-1.3-4-3.2-5.1
	c-1.8-1-4.4-0.1-6.1,1.3c-2,1.7-1.5,3.9-1.5,5.9c0,3.3,2,5.2,5.2,5.3C72.3,190.6,72.5,190.4,72.5,184.9z M197.8,308
	c-0.7,0-1.4,0-2.1,0c-2-0.1-3.4,0.3-3.9,2.7c-0.5,2.3-0.7,3.3,0.1,5.4c0.1,0.4,0.1,0.9,0.3,1.2c0.2,0.4,0.6,1.1,0.9,1.1
	c2.3,0.1,4.7,0.5,6.8-0.2c1.6-0.5,3.4-1.8,3.5-4.3C203.6,308.2,203.5,307.9,197.8,308z M248.9,293.1c0.8,0,1.5,0,2.3,0
	c2.9-0.1,3.4-0.6,3.5-3.5c0-0.4,0-0.9,0-1.3c0-6.1,0-6.1-5.9-6.1c-5.4,0-5.4,0-5.4,5.4C243.4,293.1,243.4,293.1,248.9,293.1z
	 M307.6,197.8C307.7,197.8,307.7,197.8,307.6,197.8c0,1.1,0,2.2,0,3.3c0.1,1.2,0.7,2,1.9,2c2.9,0.2,5.8,0.6,8.1-1.9
	c1.2-1.3,1.9-6.5,0.7-7.9c-0.3-0.3-0.7-0.6-1-0.7c-2.5-0.8-4.9-2.6-7.7-0.3c-1,0.8-1.9,1.3-1.9,2.6
	C307.6,195.9,307.6,196.8,307.6,197.8z M287.5,254.5c0.9,0,1.9,0.1,2.8,0c2.2-0.2,2.7-0.7,2.8-2.8c0-0.6,0-1.2,0-1.8
	c0-6.2,0-6.2-6.2-6.2c-5.1,0-5.1,0-5.1,5.2C281.9,254.6,281.9,254.6,287.5,254.5z M152,81.6c0-3.8,0-3.8-3.2-4.9
	c-0.5-0.2-1-0.6-1.5-0.9c-1.8-1.3-3-1.1-4.8,0.3c-2.3,1.8-1.9,4.2-1.8,6.5c0,0.9,0.3,2.1,0.9,2.5c1.4,1,3.1,1.5,4.7,2.2
	c0.2,0.1,0.4-0.2,0.7-0.3c1-0.5,2.2-0.9,3.1-1.5c0.7-0.5,1.4-1.2,1.7-1.9C152.2,82.8,152,81.9,152,81.6z M300.3,179.6
	c-5.7,0-5.9,0.2-5.5,5.9c0,0.1,0,0.2,0,0.3c0.2,2.3,2.1,4.3,4.4,4.6c2.7,0.3,6.1-1.5,6.7-3.5c1.6-4.9-0.1-7.3-5.1-7.3
	C300.7,179.6,300.5,179.6,300.3,179.6z M179.3,300.6c0,1-0.1,2.1,0,3.1c0.1,0.7,0.5,1.7,1,1.9c2.4,0.6,5,1,7.2-0.3
	c1.2-0.7,2.5-2,2.8-3.3c0.9-3.5-1.7-6.5-5.3-6.7C179.4,294.8,179.2,295,179.3,300.6z M80.5,141.1c-0.4,0-1.2-0.1-1.9,0
	c-1.7,0.2-3.9,2.3-4,3.8c0,2.6,1.5,4.8,3.1,6.3c1.1,1.1,3.9,0.5,5.9,0.4c1.5-0.1,1.3-1.9,2-2.6c1.9-1.9,1.3-3,0.2-5.3
	C84.5,141.3,83.1,140.9,80.5,141.1z M95.1,102.6c-1.2,0-2.4-0.1-3.6,0c-2.7,0.3-5,3.4-3.9,5.5c0.9,1.6,2.1,3.2,4.3,3.2
	c2,0,3.9,0.1,5.9,0c2.2-0.1,2.7-0.6,2.8-2.8C101.1,102.8,100.8,102.5,95.1,102.6z M67.4,153.9c-1.3,0-2.3,0-3.3,0
	c-1.4,0-2.5,0.6-2.4,2.1c0.1,2.2-1.3,4.9,1.2,6.3c2.6,1.5,9.1,0,11.1-2.2c1.1-1.2,1-2.7-0.1-3.9C72.2,154.3,69.9,153.4,67.4,153.9z
	 M110.9,95.2c0-1.1,0.1-2.2,0-3.3c-0.3-2.7-3.5-5-5.5-3.9c-1.6,0.9-3.2,2.1-3.1,4.3c0,1.7-0.1,3.4,0,5.1c0.1,2.5,0.6,2.9,3.1,3.1
	C110.7,100.8,111,100.6,110.9,95.2z M162.3,67.5c0-1.1,0-2.2,0-3.3c-0.1-2-1.5-2.4-3.1-2.2c-1.9,0.3-4.8-1.3-5.4,1.8
	c-0.5,2.4-0.4,5,0,7.4c0.6,3.6,4.3,4.4,7,2C162.7,71.6,162.2,69.5,162.3,67.5z M140.7,286.5c0,0.9,0,1.8,0.1,2.6
	c0.6,3.4,4,4.8,6.7,2.8c0.5-0.4,1.2-0.7,1.8-0.9c2.5-0.7,3.7-3.9,2.2-6c-1.5-2.3-6.9-3.7-9.5-2.5c-0.5,0.2-1,0.9-1.2,1.5
	C140.7,284.9,140.7,285.7,140.7,286.5z M286.9,141.1c-4.8,0-5,0.2-5,4.7c0,0.5,0,1,0,1.5c0,2.2,1.5,3.4,3.2,4.3
	c2.4,1.2,4.7,0.1,5.7-2.2c0.3-0.7,0.9-1.2,1.4-1.7c1.2-1.3,1.4-3,0.2-4.1C290.7,142,289.1,140.4,286.9,141.1z M67.8,214
	c1.5,0,3.7,0.2,5.7-1.9c1.2-1.3,1.5-1.9,0-2.9c-0.4-0.3-0.8-0.8-0.8-1.2c-0.3-2.6-2-2.8-4-2.7c-1.2,0-2.4,0-3.6,0
	c-2.8,0.1-3.3,0.5-3.4,3.3C61.5,213.8,61.6,214,67.8,214z M204.9,67.3c0,0.6-0.1,1.2,0,1.8c0.2,1.1,0.1,2.5,0.8,3.1
	c1.4,1,3.1,1.6,4.7,2.3c0.2,0.1,0.5-0.1,0.7-0.3c1.2-1.2,2.6-2.2,2.5-4.2c-0.1-1.5,0-3.1,0-4.6c-0.1-2.8-0.5-3.3-3.3-3.4
	C205.1,61.8,204.9,62,204.9,67.3z M300.5,153.9c-5.6,0.1-6-0.8-5.7,6.3c0,0.1,0,0.2,0,0.3c0.1,1.4,0.9,2.2,2.3,2.2
	c2,0,4.1,0.1,6.1,0c2.2-0.1,2.6-0.6,2.8-2.8C306.5,154.2,306.2,153.9,300.5,153.9z M273.1,111.8c0.1-0.2,0.1-0.3,0.2-0.5
	c3.4,0,3.4,0,5.9-2.2c1.5-1.3,1.3-3,0-4.4c-2.4-2.6-5.5-2.6-8.5-1.9c-1.4,0.3-2.7,1.9-3.5,3.3c-0.8,1.4,0.1,2.9,1.4,3.7
	C270.1,110.6,271.6,111.1,273.1,111.8z M111.4,273.9c-0.1-0.1-0.3-0.1-0.4-0.2c0-0.8,0.2-1.9-0.2-2.5c-0.9-1.3-2-2.8-3.3-3.6
	c-1.4-0.8-2.7,0.1-3.8,1.3c-1.5,1.7-2.3,6.8-1,8.6c1.9,2.5,4.1,4.3,7,0.7C110.6,277.1,110.9,275.4,111.4,273.9z M162.3,300.6
	c0-5.6-0.4-5.9-6-5.5c-0.1,0-0.2,0-0.3,0c-1.7,0-2.5,0.9-2.5,2.6c0,1.6-0.1,3.2,0,4.9c0.1,2.8,0.5,3.2,3.3,3.3
	C162.1,306.1,162.3,305.9,162.3,300.6z M300.3,214C300.3,214,300.3,214,300.3,214c1.1,0,2.2,0,3.3,0c1.7,0,2.5-1.1,2.4-2.7
	c-0.2-2,1.2-4.6-1.7-5.9c-0.2-0.1-0.3-0.1-0.5-0.1c-1.7,0-3.4-0.2-5.1,0c-2.5,0.3-4.2,3-3.9,6c0.2,2.3,0.7,2.6,4.2,2.6
	C299.5,214,299.9,214,300.3,214z M95,265.3c1.1,0,2.2,0.1,3.3,0c0.6-0.1,1.4-0.3,1.8-0.8c1-1,0.5-4.6-0.5-5.7
	c-2.4-2.6-5.5-2.5-8.5-2c-0.6,0.1-1.5,1.2-1.6,1.9C88.4,264.3,89.4,265.4,95,265.3z M213.6,300.5c0-1,0.1-2.1,0-3.1
	c-0.1-0.7-0.5-1.5-1-1.9c-1.1-0.9-4.3-0.3-5.5,0.6c-2.5,1.7-2.1,4.2-2.1,6.7c0.1,2.5,0.5,3,3,3.1C213.4,306.2,213.7,306,213.6,300.5
	z M265,95.3C265,95.3,265,95.3,265,95.3c0-0.9,0-1.9,0-2.8c0-1.8-0.8-2.6-2.6-2.7c-5.7-0.5-6.4,0.2-6.1,5.9c0,0.3,0,0.7,0.1,1
	c0.5,2.5,3,4.2,6,3.9c2.3-0.2,2.6-0.7,2.7-4.2C265,95.9,265,95.6,265,95.3z M273.5,265.3c2.4,0.7,4.2-0.6,5.8-2.2
	c0.4-0.4,0.7-1.6,0.5-1.6c-1.5-0.9-1.8-2.6-2.5-4c-0.2-0.5-1.1-0.7-1.8-0.8c-1.1-0.1-2.2-0.2-3.3,0c-0.9,0.1-2.1,0.2-2.5,0.8
	c-1,1.4-1.6,3.1-2.3,4.7c-0.1,0.2,0.3,0.7,0.6,1.1C269.4,265,271.2,265.7,273.5,265.3z M286.9,218.1c-0.8,0-1.2,0-1.6,0
	c-2.8,0.1-3.3,0.5-3.4,3.3c-0.2,5.3,0.1,5.5,5.5,5.5c2.5,0,4-1.5,5.2-3.1c0.5-0.6,0.3-2.5-0.3-3.2
	C290.9,219,289.1,217.4,286.9,218.1z M94.3,137c1.9,0.5,3.6-0.7,5.3-2.3c1.4-1.4,1.3-2.8,0-4.2c-2.4-2.8-5.5-2.7-8.4-2
	c-2.9,0.6-1.5,3.3-1.7,5.2c-0.2,1.5,0,3,2,3.3C92.1,137,92.9,137,94.3,137z M265,274.2c0-0.8,0-1.2,0-1.6c0.3-2.1-1.1-3.3-2.5-4.5
	c-1.4-1.1-2,0.6-3,1c-0.5,0.2-1.1,0.2-1.4,0.5c-0.6,0.6-1.5,1.2-1.6,2c-0.3,1.5-0.1,3.1,0,4.6c0,0.5,0.3,1.3,0.7,1.5
	c1.4,0.8,2.8,1.6,4.3,2.2c0.3,0.1,1-0.2,1.4-0.4C264.6,278,265.4,276.2,265,274.2z M132.9,89.7c-4.8,0-5.1,0.2-5.1,4.5
	c0,0.8,0,1.5,0.1,2.3c0.4,2.7,3.5,4.7,5.7,3.7c2.6-1.2,4.2-7.2,2.6-9.5c-0.3-0.4-0.9-0.7-1.5-0.9C134,89.7,133.2,89.7,132.9,89.7z
	 M222.3,76.9C222.3,76.9,222.3,76.9,222.3,76.9c-0.8,0-1.7-0.1-2.5,0.1c-1.9,0.3-3.1,1.7-3.8,3.4c-0.6,1.5,0.2,2.7,1.4,3.8
	c1.5,1.3,6.1,2.3,7.9,1.2c2.4-1.6,1.1-4.2,1.2-6.3c0.1-1.5-1-2.1-2.3-2.1C223.5,76.9,222.9,76.9,222.3,76.9z M85.3,222.3
	C85.3,222.3,85.3,222.3,85.3,222.3c0-0.8,0-1.5-0.1-2.3c-0.3-2-1.8-3.1-3.4-3.8c-1.5-0.6-2.7,0.3-3.8,1.4c-1.3,1.5-2.3,6.2-1.2,7.9
	c1.6,2.4,4.2,1.1,6.3,1.2c1.5,0.1,2-1,2.1-2.4c0-0.3,0-0.5,0-0.8C85.3,223.2,85.3,222.7,85.3,222.3z M217.8,286.5
	C217.8,286.5,217.8,286.5,217.8,286.5c0,0.8,0,1.5,0,2.3c0.2,2,1.6,3.2,3.3,4c1.6,0.8,2.9-0.2,4-1.4c1.3-1.4,2.2-6.5,1-7.9
	c-1.7-2.2-4.3-1-6.5-1c-1.5,0-1.8,1.3-1.9,2.6C217.8,285.5,217.8,286,217.8,286.5z M197,76.9c-0.9,0-1.5,0-2.1,0
	c-2.2,0.1-2.7,0.6-2.8,2.8c-0.2,2.7,1.4,5.2,3.6,5.8c2.5,0.7,6.4-0.7,7.3-2.9c0.4-0.9,0.2-2.5-0.4-3.2C201,77.8,199.2,76.2,197,76.9
	z M76.5,196.6C76.5,196.6,76.6,196.6,76.5,196.6c0.1,0.9,0,1.7,0.1,2.6c0.5,3,3.9,4.9,6.1,3.5c2.2-1.5,3.3-4.6,2.4-7
	c-0.9-2.3-3.9-3.8-6.6-3.1c-0.7,0.2-1.4,1.1-1.8,1.8C76.4,195,76.5,195.9,76.5,196.6z M166.4,81c0,0.3,0,0.7,0,1
	c0.1,3.1,0.5,3.5,3.6,3.6c5.1,0.1,5.5-0.3,5.2-5.8c-0.1-2.4-0.6-2.8-2.9-2.9c-0.5,0-1,0-1.5,0C166.7,76.9,166.4,77.2,166.4,81z
	 M273.6,128.2C273.6,128.2,273.6,128.2,273.6,128.2c-0.4,0-0.9,0-1.3,0c-2.7,0.1-3.1,0.5-3.2,3.1c-0.2,5.4,0.2,5.9,5.6,5.6
	c0.4,0,0.9,0,1.3-0.1c2.7-0.7,1.7-3,1.8-4.7c0.1-1.5,0.4-3.4-1.9-3.8C275.2,128.2,274.4,128.2,273.6,128.2z M132.4,269.5
	C132.4,269.5,132.4,269.4,132.4,269.5c-0.9-0.1-1.7-0.1-2.5,0c-2.2,0.3-2,2.1-1.9,3.6c0.1,1.8-1,4.3,1.8,4.9c1.6,0.4,3.5,0.4,5.1,0
	c3-0.8,1.6-3.5,1.8-5.4c0.2-1.5-0.2-3-2.1-3.1C133.8,269.5,133.1,269.5,132.4,269.5z M85.3,171.3C85.3,171.3,85.3,171.3,85.3,171.3
	c0-0.4,0-0.9,0-1.3c-0.1-2.7-0.5-3.1-3.1-3.3c-5.5-0.2-5.9,0.2-5.6,5.6c0,0.4,0,0.9,0.1,1.3c0.7,2.7,3,1.7,4.7,1.8
	c1.5,0.1,3.4,0.5,3.9-1.9C85.3,172.8,85.3,172,85.3,171.3z M98.1,235.4C98.1,235.4,98.1,235.4,98.1,235.4c0-0.9,0.2-1.8-0.1-2.5
	c-0.3-0.7-1.1-1.6-1.8-1.8c-4.2-1.1-7.7,2.3-6.7,6.6c0.7,3.2,3.4,1.8,5.3,2c1.6,0.2,3.2,0,3.3-2.2C98.1,236.8,98.1,236.1,98.1,235.4
	z M234.8,98.5C234.8,98.5,234.8,98.5,234.8,98.5c0.7-0.1,1.4,0,2-0.1c1.4,0,2.5-0.6,2.4-2.1c-0.1-2.2,1.1-4.6-1.2-6.4
	c-0.2-0.1-0.5-0.1-0.7-0.2c-4.3-0.8-7.6,2.5-6.6,6.8c0.2,0.7,1.1,1.4,1.8,1.8C233.2,98.6,234,98.5,234.8,98.5z M170.6,291
	c4,0,4.5-0.4,4.5-3.5c0-2.7-2-5.2-4.2-5.2c-2.4-0.1-4.5,2.4-4.5,5.2C166.4,290.6,166.9,291,170.6,291z M273.4,239.7
	c3.9,0,4.5-0.4,4.5-3.5c0-2.7-2-5.1-4.3-5.2c-2.3-0.1-4.5,2.4-4.5,5.2C269.1,239.2,269.6,239.7,273.4,239.7z M239.3,273.7
	c0-3.8-0.4-4.3-3.4-4.3c-2.8,0-5.3,2.1-5.3,4.4c0,2.2,2.5,4.3,5.2,4.3C238.9,278.2,239.4,277.7,239.3,273.7z M290.7,171.2
	c0-3.9-0.4-4.4-3.2-4.4c-2.8,0-5.4,2-5.4,4.3c0,2.3,2.5,4.4,5.3,4.4C290.3,175.5,290.7,174.9,290.7,171.2z M197.2,291
	c2.5,0,3.1-0.3,3.5-1.7c0.7-2.5-0.5-5.4-2.7-6.6c-1.4-0.8-2.9-0.4-4.5,1.2c-1.5,1.5-1.9,3-1,4.3C193.8,289.8,195.1,291.4,197.2,291z
	 M290.7,197.4c0-0.2,0.1-0.9-0.1-1.2c-1-1.2-2.2-3.2-3.4-3.2c-1.5-0.1-3.3,1.2-4.6,2.3c-0.6,0.5-0.6,2.1-0.2,3
	c0.4,1,1.4,1.9,2.4,2.5C287.8,202.4,290.7,200.8,290.7,197.4z M123.7,106.8c-0.1-1.9-2.5-4.2-4.4-4.2c-1.9,0.1-4.3,2.5-4.2,4.4
	c0.1,2,2.5,4.2,4.4,4.2C121.5,111.2,123.8,108.7,123.7,106.8z M110.9,119.8c0-1.9-2.3-4.3-4.2-4.4c-1.9,0-4.3,2.3-4.4,4.2
	c0,1.9,2.3,4.4,4.2,4.4C108.4,124.1,110.9,121.8,110.9,119.8z M118.5,258.6c-0.1-0.1-0.1-0.2-0.2-0.3c-1,0.5-2.3,0.8-2.8,1.6
	c-0.8,1.4-0.2,2.8,1.1,3.8c0.2,0.2,0.4,0.4,0.5,0.5c1,1.2,2.5,1.5,3.7,0.7c1.1-0.7,2.7-2.3,2.5-3.1c-0.3-1.2-1.9-2.1-3.1-3.1
	C119.8,258.5,119,258.7,118.5,258.6z M260.2,115.5c-0.3,0.2-1.4,0.6-1.5,1.1c-0.2,1.5-0.4,3.3,0.2,4.7c0.5,1.1,2,2.1,3.2,2.3
	c1.2,0.2,3-2.9,2.8-4.3C264.7,117.6,262.3,115.5,260.2,115.5z M104.3,249.2c0,2.4,0.6,3.2,2.3,3.2c1.7,0,2.3-0.9,2.3-3.2
	c0-2.5-0.7-3.4-2.5-3.3C104.8,246,104.3,246.8,104.3,249.2z M258.3,249.2C258.3,249.2,258.3,249.2,258.3,249.2c0.1,0.3,0,0.7,0.1,1
	c0.1,1.4,0.7,2.2,2.2,2.3c1.6,0,2.3-0.9,2.4-2.4c0-0.8,0-1.5-0.1-2.3c-0.1-1.2-0.8-1.8-2-1.9c-1.2,0-2.2,0.3-2.4,1.7
	C258.4,248.1,258.4,248.7,258.3,249.2z M248.8,263.3c0.3,0,0.7,0,1,0c1.4-0.1,2.2-0.7,2.3-2.2c0-1.6-0.8-2.3-2.4-2.4
	c-0.8,0-1.5,0-2.3,0.1c-1.5,0.2-2,1.2-1.9,2.5C245.8,263.4,247.4,263.2,248.8,263.3z M155.6,95.1c0,0.5,0.1,1,0.1,1.5
	c0.2,1.2,1,1.7,2.1,1.7c1.1,0,2.1-0.4,2.2-1.6c0.1-1.1,0.1-2.2,0-3.3c-0.1-1.2-1.1-1.6-2.2-1.6c-1.2,0-2,0.5-2.2,1.7
	C155.7,94.1,155.6,94.6,155.6,95.1z M94.6,160.6c0.3,0,0.7,0,1,0c1.5,0,2.4-0.7,2.4-2.3c0-1.6-1-2.3-2.4-2.3c-0.8,0-1.5,0-2.3,0.1
	c-1.2,0.1-1.8,0.9-1.8,2.1C91.4,159.9,92.3,160.6,94.6,160.6z M248.7,109.5c0-0.1,0.1-0.2,0.1-0.3c0.3,0,0.7,0,1,0
	c1.4-0.1,2.2-0.7,2.3-2.2c0-1.6-0.8-2.3-2.4-2.4c-0.8,0-1.6-0.1-2.3,0.1c-1.7,0.3-2.7,2.5-1.4,3.7
	C246.7,109,247.8,109.1,248.7,109.5z M94.8,186.3c0.7-0.1,1.4,0,2-0.3c0.4-0.2,0.9-0.9,0.9-1.3c-0.1-1.5-3.2-3.4-4.6-2.9
	c-0.7,0.3-1.5,1.3-1.5,2c0,0.7,0.6,1.7,1.2,2.2C93.3,186.4,94.1,186.2,94.8,186.3z M94.8,212c0.7-0.1,1.4-0.1,2-0.3
	c0.4-0.2,0.9-0.9,0.9-1.3c-0.2-1.6-3.4-3.5-4.8-2.8c-0.6,0.3-1.3,1.3-1.3,1.9c0,0.8,0.6,1.7,1.2,2.2C93.3,212,94.1,211.9,94.8,212z
	 M211.6,95.2c0-0.5,0-0.9-0.1-1.2c-0.2-1.7-1.2-2.4-2.8-2.1c-1.4,0.2-2.2,1.4-1.6,2.9c0.4,1.1,1.3,2,2.1,2.8c1,0.9,1.9,0.6,2.2-0.8
	C211.6,96.3,211.6,95.6,211.6,95.2z M185.9,95.1C185.9,95.1,185.9,95.1,185.9,95.1c0-0.3,0-0.7-0.1-1c-0.2-1.7-1.1-2.5-2.7-2.2
	c-1.5,0.2-2.3,1.5-1.7,3.1c0.3,0.9,1.2,1.6,1.9,2.3c0.4,0.4,1.2,0.8,1.5,0.7c0.5-0.3,0.8-1,1-1.6C186,96,185.9,95.5,185.9,95.1z
	 M292.7,282.5c0-1.4-0.8-2.2-2.2-2.2c-2.6,0-5.1,0-7.7,0c-1.4,0-2.3,0.7-2.3,2.2c0,2.8,0,5.6,0,8.4c0,1.3,0.8,2.1,2.1,2.1
	c2.6,0,5.3,0,7.9,0c1.5,0,2.2-0.9,2.2-2.3c0-1.3,0-2.6,0-3.8C292.7,285.4,292.7,284,292.7,282.5z M74.4,269.7c0-1.4-0.8-2.2-2.2-2.2
	c-2.6,0-5.1,0-7.7,0c-1.4,0-2.3,0.7-2.3,2.2c0,2-0.1,4.1,0.1,6.1c0.2,1.9,2.4,4.2,4.1,4.3c2,0.1,3.9,0,5.9,0c1.5,0,2.2-0.9,2.2-2.3
	c0-1.3,0-2.6,0-3.8C74.4,272.6,74.5,271.1,74.4,269.7z M318.9,222.4c0,1,0,2,0,3.1c0.1,2.9,0.5,3.3,3.5,3.4c1.2,0,2.4,0,3.6,0
	c2.8-0.1,5-2.1,5.2-4.9c0.1-1.8,0-3.6,0-5.4c0-1.5-0.7-2.4-2.3-2.5c-2.6,0-5.1,0-7.7,0c-1.4,0-2.2,0.8-2.3,2.2
	C318.9,219.7,319,221.1,318.9,222.4C319,222.4,318.9,222.4,318.9,222.4z M273.9,74.8c1.2,0,2.4,0,3.6,0c1.6,0,2.3-0.8,2.4-2.4
	c0-1.5,0.1-3.1,0-4.6c-0.1-3.6-2.3-5.7-5.9-5.8c-1.3,0-2.6,0-3.8,0c-1.7,0-2.5,0.8-2.5,2.5c0,2.6,0,5.1,0,7.7c0,1.8,1,2.6,2.7,2.6
	C271.5,74.8,272.7,74.8,273.9,74.8C273.9,74.8,273.9,74.8,273.9,74.8z M218.8,318.8c-1.7,0-2.5,0.8-2.5,2.5c0,1.7,0,3.4,0,5.1
	c0,5.2,0,5.1,5.3,5.2c2.5,0.1,4.8-0.1,6-2.7c0.6-1.2,0.9-2.7,0.9-4.1c0.1-6.3,0.4-6.1-5.9-6C221.3,318.8,220.1,318.8,218.8,318.8z
	 M87.3,81.2c0-1.4,0.1-2.7,0-4.1c-0.1-0.6-0.3-1.4-0.8-1.8c-1-1-6.1-0.6-7.1,0.4c-1,1-2,2.1-2.9,3.2c-1.3,1.4-2.1,5.8-1.1,7.4
	c0.3,0.6,1.2,1.1,1.8,1.1c2.6,0.1,5.3,0.1,7.9,0.1c1.5,0,2.2-0.8,2.2-2.3C87.3,84,87.3,82.6,87.3,81.2
	C87.3,81.2,87.3,81.2,87.3,81.2z M189.9,333.7c-0.1-1.2-0.7-2-1.9-2c-2.8-0.1-5.6-0.1-8.4,0.1c-0.6,0-1.5,1-1.8,1.8
	c-1.2,3.8,1.4,6.8,2.4,10.1c0.1,0.2,0.4,0.3,0.6,0.5c1.9,1,6,0,7.5-1.4c1.8-1.7,1.7-3.8,1.6-5.9C190,335.7,190,334.7,189.9,333.7z
	 M343.1,187.9c1-1.5,0.9-3,1-4.6c0.1-1.7-0.4-3-2.4-3.2c-0.6-0.1-1.3-0.3-1.6-0.7c-1.6-2.3-3.9-1.7-6-1.7c-1.5,0-2.2,0.8-2.2,2.3
	c0,1.8,0,3.6,0,5.4c0,5.1,0,5.1,5.6,5.1C339.4,190.6,341.5,190.3,343.1,187.9z M100.1,64.8c-0.1-2.2-0.6-2.6-2.8-2.7
	c-1.5-0.1-3.1-0.1-4.6,0c-2.2,0.1-2.7,0.5-2.8,2.7c-0.1,2,0,4.1,0,6.1c0,3.6,0.3,3.9,4,3.9c6.7,0,6.3,0.4,6.2-6.2
	C100.1,67.3,100.2,66,100.1,64.8z M48.8,222.5c0-1.3,0-2.6,0-3.8c0-1.7-0.8-2.5-2.5-2.5c-1.8,0-3.6,0-5.4,0c-1.4,0-2.3,0.7-2.3,2.2
	c0,2-0.2,4.1,0.1,6.1c0.4,3.5,6,6,9.1,4.1c0.5-0.3,0.9-1.2,1-1.9C48.9,225.2,48.8,223.8,48.8,222.5
	C48.8,222.5,48.8,222.5,48.8,222.5z M64.4,90.3c-1.3,0-2.1,0.7-2.2,2c-0.1,2-0.1,4.1,0,6.1c0,1.3,0.9,2,2.2,2c2.6,0,5.1,0,7.7,0
	c1.6,0,2.3-0.9,2.3-2.4c0-0.6,0-1.2,0-1.8c0-6.3,0.3-6-6-6C67.1,90.3,65.8,90.3,64.4,90.3z M319,124c0.1,0.7,0.7,1.7,1.3,1.9
	c4.2,1.4,9-1.3,8.9-5.8c0-0.9,0-1.9,0-2.8c0-3.6-0.3-3.9-4-3.9c-6.7,0-6.3-0.4-6.2,6.2C319,121.1,318.8,122.5,319,124z M119.9,318.8
	c-1.3,0-2.6,0-3.8,0c-1.7,0-2.5,0.8-2.5,2.5c0,1.8,0,3.6,0,5.4c0,1.4,0.8,2.2,2.2,2.3c2,0,3.9,0,5.9,0c0.6,0,1.2-0.3,1.6-0.6
	c2.2-1.5,3.3-5.3,2.3-8.1c-0.9-2.4-3.2-1.2-4.9-1.5C120.4,318.7,120.2,318.8,119.9,318.8C119.9,318.8,119.9,318.8,119.9,318.8z
	 M48.8,121.2c0-0.9,0-1.7,0-2.6c-0.2-3.4-2.6-5.5-5.8-5.3c-2.2,0.1-3.2,1.9-3.8,3.3c-0.7,1.6-0.6,3.7-0.3,5.4
	c0.1,0.7,1.6,1.1,2.5,1.7c0.5,0.3,1,0.7,1.3,1.1c1.3,1.7,3.1,1.3,4.7,1c1.7-0.4,1.3-1.9,1.4-3.2C48.8,122.2,48.8,121.7,48.8,121.2
	C48.8,121.2,48.8,121.2,48.8,121.2z M35.9,184c0-1.4,0.1-2.8-0.1-4.1c-0.1-0.7-0.6-1.8-1.1-2c-0.7-0.2-2.1,0-2.5,0.6
	c-1,1.4-2.3,1.5-3.8,1.7c-0.8,0.1-2.2,0.5-2.3,1.1c-0.6,2.1-0.8,4.3,0.4,6.4c1.5,2.7,4,2.9,6.6,2.7c2.3-0.2,2.7-0.5,2.8-2.7
	C36,186.4,35.9,185.2,35.9,184C35.9,184,35.9,184,35.9,184z M183.7,36.2c1.4,0,2.7,0.1,4.1,0c0.7-0.1,1.6-0.5,1.9-1
	c1.4-2.3,0.1-7.6-2.3-8.6c-1.5-0.6-3.3-0.5-5-0.5c-1.6-0.1-2.6,0.7-2.6,2.4c0,1.6-0.4,2.9-1.4,4.2c-1.4,1.7-0.5,3.3,1.7,3.5
	C181.3,36.3,182.5,36.3,183.7,36.2C183.7,36.3,183.7,36.3,183.7,36.2z M243.7,318.9c-0.8,0-1.9,0.6-1.1,1.4c1.7,1.8,1.3,4,1.4,6
	c0.1,1.8,0.8,2.7,2.7,2.7c1.7,0,3.4,0,5.1,0c1.5,0,2.4-0.8,2.4-2.3c0-0.6,0-1.2,0-1.8c0-6.4,0.3-6.1-5.9-6
	C246.8,318.8,245.2,318.8,243.7,318.9z M319,247.8c0,1.5,0,3.1,0,4.6c0,1.3,0.8,2.1,2.1,2.1c2,0,3.9,0,5.9,0c1.5,0,2.1-0.9,2.2-2.3
	c0-1.4,0.1-2.9,0-4.3c0-3.1-0.4-3.5-3.6-3.6c-0.4,0-0.9,0-1.3,0c-1.5,0-3,0.1-4.1-1.5c-0.7-1-1.2,0-1.2,0.6
	C318.9,244.9,319,246.3,319,247.8C319,247.8,319,247.8,319,247.8z M123.5,49.1c1.6,0,2.4-0.9,2.3-2.4c-0.2-1.3-0.7-2.5-1.1-3.8
	c-0.2-0.7-0.7-1.3-0.9-2.1c-0.3-1.3-1.1-1.9-2.4-1.9c-1.1,0-2.2,0-3.3,0c-2.1,0-3.4,1.3-4.1,2.9c-0.8,1.7-0.4,3.3,0.7,5
	c1.6,2.4,3.7,2.4,6,2.2C121.6,49.1,122.5,49.1,123.5,49.1z M254.2,41.9c-0.1-2.4-0.5-2.8-2.9-2.9c-1.3-0.1-2.6,0-3.8,0
	c-3.1,0.1-3.5,0.4-3.5,3.6c0,0.4,0,0.9,0,1.3c0,5.4,0,5.4,5.3,5.4c4.9,0,4.9,0,4.9-5C254.2,43.4,254.2,42.6,254.2,41.9z M151.5,44
	c0-5.1,0-5.1-5.1-5.1c-5.2,0-5.2,0-5.2,5.3c0,5,0,5,5,5C151.5,49.2,151.5,49.2,151.5,44z M43.7,141.6c-5.2,0-5.2,0-5.2,5
	c0,5.2,0,5.2,5.2,5.2c5,0,5,0,5-4.9C48.8,141.6,48.8,141.6,43.7,141.6z M48.8,249.4c0-5.1,0-5.1-5-5.1c-5.2,0-5.2,0-5.2,5.2
	c0,5,0,5,4.9,5C48.8,254.5,48.8,254.5,48.8,249.4z M132.7,331.6c-1.8,0.1-2.4,1.5-3.3,2.6c-2,2.6-1.5,7.5,1.8,9.7
	c0.5,0.4,1.7-0.1,2.5-0.4c0.7-0.3,1.2-1.2,2-1.5c2.9-1.1,2.9-1,2.9-4.1C138.6,333.8,136.3,331.4,132.7,331.6z M342.2,136
	c0.2-0.5,0.5-1.1,0.9-1.5c1.3-1.5,0.8-2.6-0.3-4c-1.9-2.3-4.3-1.7-6.6-1.6c-2.4,0.1-4.2,2.2-4.3,4.6c-0.1,3.4,2.3,5.6,6.1,5.6
	C341.2,139,341.2,139,342.2,136z M300.2,305.9c3.5-0.1,5.4-2.4,5.4-6.6c0-3.5-0.3-3.7-5-3.7c-0.1,0-0.2,0-0.3,0c-5,0-5,0-5,4.9
	C295.3,305.8,295.4,306,300.2,305.9z M346.7,249.5c0,0.3,0,0.5,0,0.8c0,4.1,0.3,4.3,4.4,4.3c0.3,0,0.5,0,0.8,0
	c2.4-0.1,4.7-2.1,5-4.5c0.7-4.9,0-5.7-5-5.7C346.7,244.3,346.7,244.3,346.7,249.5z M94.9,49.1c3.5-0.1,5.3-2.4,5.3-6.7
	c0-3.4-0.3-3.6-4.8-3.6c-0.1,0-0.2,0-0.3,0c-5.2,0-5.2,0-5.2,5C89.9,49.1,90.1,49.3,94.9,49.1z M346.7,146.9c0,4.9,0.2,5.1,5,5
	c3.5-0.1,5.3-2.4,5.3-6.6c0-3.4-0.3-3.6-4.8-3.6c-0.1,0-0.2,0-0.3,0C346.7,141.6,346.7,141.6,346.7,146.9z M249.1,357.2
	c2.4-0.1,4.7-2.1,5.1-4.5c0.7-4.9,0-5.7-4.9-5.7c-5.3,0-5.3,0-5.3,5.2C244,357.2,244.1,357.4,249.1,357.2z M197.5,357.2
	c3.5-0.1,5.4-2.4,5.4-6.6c0-3.5-0.3-3.7-5-3.7c-0.1,0-0.2,0-0.3,0c-5,0-5,0-5,4.9C192.6,357.2,192.7,357.3,197.5,357.2z M144.3,347
	c-2.5,0.1-2.9,0.5-3,3.1c0,1.3,0,2.6,0,3.8c0.1,2.8,0.5,3.2,3.3,3.3c0.6,0,1.2,0,1.8,0c2.3-0.1,4.6-1.9,5.1-4.2c1-4.7,0-6-4.8-6
	C145.8,347,145.1,347,144.3,347z M38.6,96.6c0,3.5,0.4,3.8,3.8,3.9c0.3,0,0.7,0,1,0c3.6-0.1,5.5-2.3,5.4-6.5c0-3.6-0.3-3.8-4.9-3.8
	c-0.1,0-0.2,0-0.3,0c-5.1,0-5.1,0-5.1,5.1C38.6,95.8,38.5,96.2,38.6,96.6z M346.7,198.2c0,0.2,0,0.3,0,0.5c0,4.3,0.2,4.6,4.7,4.5
	c0.2,0,0.3,0,0.5,0c2.4-0.1,4.7-2.1,5-4.6c0.7-4.9,0-5.7-5-5.7C346.7,192.9,346.7,192.9,346.7,198.2z M231.1,338
	c-0.4,2.3,0.8,3.9,2.2,5.5c0.8,0.9,1.8,1.2,2.7,0.5c1.6-1.4,3.2-2.8,4.6-4.4c1.7-2.1,0.7-4.6-1.9-5.5c-0.8-0.3-1.5-0.8-2.1-1.4
	c-1.3-1.3-2.8-1.2-4.3-0.8c-1.5,0.4-1.3,1.8-1.3,3c0,0.6,0,1.2,0,1.8C231.1,337.1,231.2,337.5,231.1,338z M335.9,231.5
	c-1.3,0.3-3.1,0.3-3.6,1.1c-1,1.4-0.7,3.2,0.6,4.7c0.5,0.6,0.7,1.3,0.9,2.1c0.6,2.2,3.2,3.2,5,1.8c1.6-1.2,3-2.7,4.5-4.2
	c1.1-1.1,0.9-2.2-0.1-3.4c-1.6-2-3.6-2.3-5.5-2.1C336.7,231.5,336.3,231.4,335.9,231.5z M15.7,193c-0.1,0-0.2,0-0.3,0
	c-2.7,0.2-4.6,2.2-4.6,4.8c0,2.7,2.2,5.2,4.7,5.4c5.2,0.4,5.5,0,5.5-5.1C21.1,193,20.8,192.7,15.7,193z M15.7,141.6
	c-2.9,0.1-4.8,2.1-4.8,4.8c0,2.8,2.2,5.3,5,5.4c5,0.2,5.3,0,5.3-4.9C21.1,141.6,20.9,141.3,15.7,141.6z M221,347
	c-2.8,0.2-4.8,2.2-4.7,4.9c0,2.7,2.2,5.1,4.8,5.3c5.1,0.3,5.4,0,5.4-5C226.5,347,226.2,346.7,221,347z M169.8,347
	c-2.9,0.1-4.9,2.1-4.9,4.8c0,2.9,2.2,5.3,4.9,5.5c5.1,0.3,5.3,0,5.3-5.1C175.1,347,174.9,346.8,169.8,347z M118.6,347
	c-3,0.1-5,2.1-5,4.9c0,2.8,2.3,5.2,5,5.3c5,0.2,5.2,0,5.2-5C123.8,347,123.6,346.8,118.6,347z M272.4,38.9c-2.9,0.1-4.8,2.1-4.8,4.8
	c0,2.8,2.2,5.3,5,5.4c5,0.2,5.3,0,5.3-4.9C277.8,38.9,277.6,38.6,272.4,38.9z M67.1,295.7c-0.1,0-0.2,0-0.3,0
	c-2.7,0.2-4.6,2.2-4.6,4.8c0,2.7,2.1,5.2,4.7,5.4c5.2,0.4,5.6,0,5.6-5.1C72.4,295.6,72.2,295.4,67.1,295.7z M323.9,295.7
	c-2.9,0.1-4.9,2.1-4.9,4.8c0,2.9,2.2,5.3,4.9,5.4c5.1,0.2,5.3,0,5.3-5.1C329.2,295.7,328.9,295.4,323.9,295.7z M15.8,244.3
	c-0.1,0-0.2,0-0.3,0c-2.7,0.2-4.6,2.2-4.7,4.8c0,2.7,2.1,5.3,4.6,5.4c5.2,0.4,5.6,0,5.6-5.1C21.1,244.3,20.8,244.1,15.8,244.3z
	 M323.8,90.3c-2.9,0.1-4.8,2.1-4.8,4.9c0,2.8,2.3,5.2,5,5.4c5,0.2,5.2,0,5.2-4.9C329.2,90.2,328.9,90,323.8,90.3z M300.5,49.1
	c2.8-0.1,5-2.4,5.1-5.3c0-2.7-2.1-4.8-5-5c-4.9-0.2-5.2,0-5.2,5C295.3,49.1,295.5,49.3,300.5,49.1z M241.3,31.9
	c0.5-2.8-1.5-5.6-4.4-5.8c-5.1-0.5-5.8,0-5.8,4.4c0,0.6,0,1.2,0,1.8c0,3.7,0.3,4,3.9,4C238.3,36.3,240.8,34.6,241.3,31.9z
	 M356.8,169.2c-0.4-2.3-2.8-4.5-5.1-4.5c-2.4,0-4.7,2.1-5,4.5c-0.7,4.8,0,5.7,5,5.7C356.8,175,357.6,174,356.8,169.2z M25.7,236.5
	c0.1,1.9,1.9,4.5,3.4,5c2,0.7,3.6-0.1,5.5-2c1.7-1.7,1.2-3.8,1.3-5.8c0-1.4-0.8-2.2-2.2-2.3c-1.4,0-2.7-0.1-4.1,0
	c-3.6,0-3.9,0.4-3.9,4C25.7,235.8,25.7,236.2,25.7,236.5z M48.8,272.6c-0.1-2.4-1.6-4-3.4-5c-1.8-1-3.6,0-5.4,1.9
	c-2,2.1-1.7,4.5-1,6.7c0.6,2.1,2.9,1.1,4.5,1.3c0.1,0,0.2,0,0.3,0C48.7,277.7,49.1,277.3,48.8,272.6z M354.9,226.2
	c0.6-0.1,1.6-0.7,1.7-1.2c0.2-1.7,0.5-3.7-0.1-5.3c-0.6-1.5-1.6-3.2-3.6-3.6c-3.4-0.6-5.4,1.6-6.1,4.5c-1.1,4.7,0,5.7,4.8,5.7
	C352.7,226.2,353.8,226.4,354.9,226.2z M305.5,67c-0.2-2.2-1.6-3.8-3.4-4.7c-1.8-1-3.7,0-5.5,1.9c-2,2.1-1.7,4.5-1,6.7
	c0.6,2.2,2.9,1.1,4.5,1.4c0.1,0,0.2,0,0.3,0C305.5,72.3,305.9,71.8,305.5,67z M303.5,328.9c0.6-0.1,1.6-0.7,1.7-1.2
	c0.2-1.7,0.5-3.7-0.1-5.3c-0.6-1.5-1.6-3.2-3.6-3.6c-3.4-0.6-5.3,1.5-6.1,4.4c-1.1,4.7,0,5.8,4.8,5.7
	C301.3,328.9,302.5,329.1,303.5,328.9z M100.1,323.5c-0.4-2.9-3.1-5.1-5.9-4.5c-1.1,0.2-2,1.3-2.9,2.1c-2.1,1.9-1.7,4.5-1,6.7
	c0.6,2.1,2.9,1.1,4.5,1.3c0.1,0,0.2,0,0.3,0C100.1,329,100.7,328.3,100.1,323.5z M151.5,15.9c-0.1-2.4-1.6-4-3.4-5
	c-1.8-1-3.6,0-5.5,1.9c-2,2.1-1.7,4.5-1,6.7c0.6,2.1,2.9,1.1,4.5,1.4c0.1,0,0.2,0,0.3,0C151.4,20.9,151.8,20.6,151.5,15.9z
	 M200.3,20.9c1.7,0,2.5-0.8,2.5-2.5c0-1,0.1-2.1,0-3.1c-0.3-2.7-3-4.8-5.7-4.6c-1.5,0.1-2.1,1.1-3,2c-2.1,2.1-1.9,4.6-1.1,6.9
	c0.7,2.2,3.1,1,4.6,1.3C198.6,20.9,199.4,20.9,200.3,20.9z M356.9,118c0-0.1,0-0.2,0-0.3c-0.5-2.6-3-4.5-5.7-4.4
	c-1.7,0-2.2,1.3-3.2,2.2c-2,2-1.6,4.5-1,6.7c0.6,2.1,2.9,1.1,4.5,1.3c0.1,0,0.2,0,0.3,0C356.8,123.6,357.5,122.9,356.9,118z
	 M249.1,20.8c1,0,2,0,3.1,0c1.2-0.1,1.9-0.7,2-1.9c0.1-1.3,0.3-2.6-0.1-3.8c-0.8-2.5-2.6-5.2-5.8-4.3c-1.1,0.3-2,1.3-2.9,2.1
	c-2.1,1.9-1.7,4.5-1,6.7c0.6,2.1,2.9,1.1,4.5,1.3C248.9,20.9,249,20.9,249.1,20.8C249.1,20.9,249.1,20.9,249.1,20.8z M207.6,343.4
	c0.9,0.9,2,1.3,2.9,0.4c1.7-1.6,3.7-3.1,3.2-6c-0.2-1.2-0.1-2.6-0.1-3.8c0-1.6-0.9-2.3-2.4-2.3c-6.3-0.2-5.7,0.2-5.8,5.7
	C205,339.4,205.7,341.5,207.6,343.4z M156.4,343.5c0.8,0.9,1.9,1.2,2.7,0.4c1.7-1.6,3.8-3,3.2-5.9c-0.2-1.2-0.1-2.4,0-3.6
	c0-1.8-0.8-2.6-2.6-2.7c-5.2-0.3-5.6,0-5.6,5.6C153.6,339.4,154.5,341.6,156.4,343.5z M25.7,133.2c0,0.4,0,0.9,0.1,1.3
	c0.4,2.7,2.8,4.7,5.5,4.5c2.1-0.1,4.5-2.6,4.6-5c0.2-3.3-1.9-5.2-6-5.3C26,128.7,25.6,129.1,25.7,133.2z M44.9,295.6
	c-1.3,0-2.6,0-3.8,0c-1.7,0-2.8,1-2.4,2.6c0.6,2.4,1.6,4.7,2.6,7c0.2,0.4,1,0.5,1.6,0.6c3.6,0.5,5.9-2,5.9-6.2
	C48.8,296,48.5,295.7,44.9,295.6z M128.4,30.4c0,0.5,0,1,0.1,1.5c0.4,2.5,2.9,4.5,5.4,4.4c2.2-0.1,4.5-2.5,4.7-4.9
	c0.3-3.3-2-5.3-5.9-5.4C128.7,26,128.3,26.4,128.4,30.4z M277.9,324.8c0-1.8-0.8-2.9-1.9-4.2c-1.6-1.8-3.2-2.2-5.2-1.5
	c-1.5,0.5-3.1,3.4-3.1,5.2c0.1,3,2.2,4.7,6,4.7C277.5,329,277.8,328.7,277.9,324.8z M327.3,277.5c0.7-0.3,1.6-1,1.7-1.6
	c0.3-2.4,0.8-4.8-1.7-6.7c-2-1.4-3.7-2.4-5.2-1.5c-1.7,1.1-3.1,2.6-3.1,5c0,3.2,2.1,5,6.6,5C325.8,277.6,326.6,277.8,327.3,277.5z
	 M337.1,205.8c-1,0-2,0-3.1,0c-1.3,0-2.1,0.7-2.1,2.1c0,1.2-0.2,2.4,0.1,3.6c0.2,0.7,1,1.8,1.7,1.8c2.3,0.2,4.7,0.4,6.9-0.1
	c1.3-0.3,2.5-1.7,3.3-2.9c0.8-1.3-0.4-2.5-1.5-3.1c-1.6-0.8-3.3-1.3-5-1.9C337.2,205.5,337.1,205.7,337.1,205.8z M336.9,162
	c1.1,0,2.2,0.1,3.3,0c2.4-0.4,4.5-3.1,3.4-4.7c-1-1.4-2.1-2.9-4.2-2.9c-1.4,0-2.7,0-4.1,0c-3.1,0.1-3.5,0.5-3.5,3.6
	c0,3.7,0.3,4,4.1,4.1C336.2,162.1,336.6,162.1,336.9,162C336.9,162.1,336.9,162.1,336.9,162z M208.1,26.1c-0.2,0-0.3,0-0.5,0
	c-1.3,0.1-2,0.8-2.1,2.1c0,2,0,3.9,0,5.9c0,1.3,0.7,1.9,2.1,2.1c5.1,0.8,6.1,0,6.1-5.1C213.6,26.1,213.2,25.6,208.1,26.1z
	 M159.9,36.3c1.4-0.2,2.3-0.7,2.3-2.2c0-2,0-3.9,0-5.9c0-1.3-0.8-1.9-2.1-2.1c-5-0.8-6,0-6,4.9C154.1,36.3,154.7,36.9,159.9,36.3z
	 M284.8,343.5c0.8,0.9,1.8,1,2.7,0.3c1.5-1.3,2.9-2.6,4.3-4c1.2-1.2,0.9-2.3-0.1-3.6c-1.4-1.7-3.2-2.1-5.2-2c-3.6,0.1-4,0.4-4,4.3
	C281.9,340.5,283.5,342,284.8,343.5z M123.8,16.7c0-0.2,0-0.3,0-0.5c0.2-2.7-2.1-3.7-3.6-5.1c-0.3-0.3-1.7,0-2.2,0.5
	c-1.3,1.2-2.5,2.6-3.6,3.9c-0.9,1-0.9,2.1,0,3.2c1.4,1.8,3.1,2.6,5,2.2C123.5,20.9,123.8,20.5,123.8,16.7z M171,21.3
	c1.3-0.5,3-0.7,3.7-1.6c1.6-2.2-0.6-8-3.3-8.8c-0.6-0.2-1.6,0.1-2.1,0.5c-1.4,1.3-2.6,2.7-3.8,4.1c-0.8,1-0.8,2,0,3
	c1.3,1.8,3,2.7,5.3,2.2C171,21,171,21.2,171,21.3z M222.5,21.4c1.2-0.6,3-0.8,3.6-1.7c1.5-2.3-0.7-7.8-3.3-8.6
	c-0.6-0.2-1.7,0.1-2.3,0.6c-1.3,1.1-2.3,2.5-3.5,3.7c-1,1.1-0.9,2.3,0,3.4c1.4,1.7,3.1,2.4,5.2,2C222.4,21,222.4,21.2,222.5,21.4z
	 M21.1,170.7c0-0.2,0-0.3,0-0.5c0.2-2.7-2.1-3.7-3.6-5.2c-0.3-0.3-1.7,0.1-2.2,0.6c-1.3,1.1-2.3,2.5-3.5,3.7c-1,1.1-1,2.3-0.1,3.4
	c1.3,1.7,3,2.5,4.8,2.1C20.8,175,21.1,174.6,21.1,170.7z M20.6,122.5c1.7-2.2-0.6-8.1-3.3-8.8c-0.6-0.2-1.7,0.2-2.2,0.7
	c-1.2,1.1-2.2,2.4-3.3,3.6c-1.1,1.2-1.1,2.4-0.1,3.6c1.3,1.6,2.9,2.3,5.1,2.4C18.2,123.5,19.9,123.4,20.6,122.5z M21.1,222.1
	c0-0.3,0-0.5,0-0.8c0.1-2.6-2.2-3.5-3.6-4.9c-0.3-0.3-1.7,0.1-2.2,0.6c-1.3,1.1-2.3,2.5-3.5,3.7c-1,1.1-1,2.3,0,3.4
	c1.3,1.7,3,2.4,4.8,2.1C20.8,226.3,21.1,226,21.1,222.1z M328.7,71.2c1.7-2.1-0.5-8-3.2-8.8c-0.6-0.2-1.7,0.2-2.2,0.7
	c-1.2,1.1-2.2,2.4-3.3,3.6c-1.1,1.2-1.2,2.3-0.1,3.6c1.3,1.6,2.9,2.4,5.1,2.5C326.2,72.2,328,72.1,328.7,71.2z M71.6,71.6
	c1.5-1.6,0.9-3.9,0.6-5.8C72,64.6,68.8,62,68,62.2c-0.5,0.1-1.1,0.4-1.5,0.8c-1.1,1.1-2.2,2.4-3.3,3.6c-1.1,1.2-1.1,2.3-0.1,3.6
	c1.3,1.7,3,2.4,5.2,2.3C69.4,72.2,70.9,72.3,71.6,71.6z M68.2,329.4c1.3-0.5,3-0.6,3.8-1.5c1.7-2.1-0.6-8-3.2-8.8
	c-0.6-0.2-1.6,0.1-2.1,0.5c-1.3,1.2-2.5,2.6-3.7,3.9c-0.9,1-1,2.1,0,3.2c1.3,1.6,2.9,2.7,5.1,2.2C68.1,329.1,68.2,329.3,68.2,329.4z
	 M337.8,282.4c-1.2,0.5-3,0.8-3.6,1.7c-1.4,2,0.2,7.2,2.4,8.4c0.6,0.3,1.8,0.3,2.3-0.1c1.6-1.3,3-2.8,4.4-4.2c0.9-0.9,0.9-2,0-3
	c-1.4-1.7-3-2.8-5.4-2.3C337.9,282.7,337.9,282.5,337.8,282.4z M35.9,156.7c-0.2-1.4-0.8-2.2-2.3-2.2c-1.9,0-3.7,0-5.6,0
	c-1.4,0-2.1,0.8-2.3,2.2c-0.6,4.6,0.1,5.4,4.7,5.4c0.1,0,0.2,0,0.3,0C35.9,162.1,36.5,161.4,35.9,156.7z M367.6,185.4c0-1,0-2,0-3.1
	c-0.1-1.6-1.1-2.3-2.5-2.2c-1.9,0.2-4.2-1-5.4,1.5c-0.1,0.3-0.1,0.7-0.1,1c-0.2,2.3-0.1,4.5,1.9,6.3c1.2,1.1,3.2,1.8,4.8,1.2
	c1.6-0.6,1.3-2,1.4-3.2C367.7,186.4,367.7,185.9,367.6,185.4C367.7,185.4,367.6,185.4,367.6,185.4z M362.4,231.5
	c-2.3,0.1-2.7,0.6-2.9,3c-0.2,2.2,0.2,4.1,1.9,5.8c1.2,1.2,3.1,1.9,4.8,1.3c1.8-0.6,1.4-2.1,1.5-3.4c0-0.4,0-0.8,0-1.3
	C367.7,231.4,367.4,231.2,362.4,231.5z M35.9,208c-0.2-1.3-0.8-2.1-2.1-2.1c-2-0.1-3.9,0-5.9,0c-1.4,0-2.1,0.8-2.2,2.2
	c-0.6,4.6,0.1,5.4,4.8,5.4c0.2,0,0.3,0,0.5,0C35.9,213.5,36.6,212.6,35.9,208z M0.1,187.3c0.2,0.9,0.5,2.4,1.1,2.6
	c1.2,0.3,2.9,0.4,3.9-0.2c2.6-1.7,3.8-4.2,3.2-7.4c-0.3-1.3-0.8-1.9-2.1-2.1c-5-0.8-6,0-6,4.9C0.1,185.8-0.1,186.6,0.1,187.3z
	 M51.4,290c0.3,1,0.6,2.5,1.3,2.7c1.2,0.3,2.8,0.2,3.8-0.4c2.5-1.6,3.6-4.1,3-7.2c-0.2-1.3-0.8-2-2.1-2.2c-5.1-0.8-6.1,0-6.1,5.1
	C51.4,288.6,51.2,289.4,51.4,290z M308.2,84.7c0.2,0.9,0.6,2.4,1.1,2.5c1.2,0.3,2.9,0.4,3.9-0.3c2.6-1.7,3.8-4.3,3-7.4
	c-0.2-0.8-0.9-1.7-1.6-1.9c-4.6-1.4-6.5,0-6.5,4.8C308.2,83.2,308,84,308.2,84.7z M51.4,84.6c0.3,1,0.6,2.5,1.3,2.7
	c1.2,0.3,2.9,0.3,3.8-0.4c2.5-1.6,3.6-4.1,3-7.2c-0.2-1.3-0.7-2-2.1-2.2c-5-0.8-6.1,0-6.1,5.1C51.4,83.2,51.3,83.9,51.4,84.6z
	 M260.9,51.7c-0.3,0-0.5,0-0.8,0c-2.8,0.1-3.1,0.5-3.3,3.4c-0.1,1.5-0.4,3-0.7,4.5c-0.1,0.6-0.5,1.2-0.7,1.7
	c0.7,0.2,1.5,0.7,2.1,0.6c1-0.2,2-0.7,3-1.1c0.7-0.3,1.2-1,1.9-1.2c2.6-0.9,2.7-0.9,2.7-3.8C265,52.1,264.7,51.7,260.9,51.7z
	 M313.4,282.6c-0.6-0.2-1.2-0.7-1.6-1.2c-0.6-0.7-1.1-0.8-1.6,0c-0.3,0.5-0.7,0.9-1.1,1.4c-2,2.5-0.9,8.3,2,9.7
	c0.5,0.3,1.6,0.3,1.9,0c1.6-1.7,4.1-2.9,3.3-5.5C316.3,283.7,316.3,283.7,313.4,282.6z M308.1,107.3c-0.1,1.3-0.4,2.7-0.9,3.8
	c-0.8,1.6-0.7,2,1.2,2.1c3.1,0.2,4.8-2.8,7.6-3.4c0.1,0,0.1-0.1,0.1-0.2c0-1.8,0.4-3.8-0.2-5.5c-0.2-0.8-2.2-1-3.4-1.5
	C308.4,103.1,308.3,103.3,308.1,107.3z M59.2,263.7c1-1.1,1.7-2.7,2.2-4.2c0.3-1,0.3-2.2,0.2-3.3c-0.2-1.4-1-1.6-1.8-0.6
	c-0.9,1.2-2,1.4-3.3,1.4c-0.9,0-1.9-0.1-2.8,0.1c-0.7,0.1-1.8,0.6-1.8,1.1c-0.2,1.8-0.4,3.8,0.1,5.5c0.3,0.8,2.2,1,3.6,1.5
	C56.8,264.7,58.4,264.6,59.2,263.7z M111.2,313.2c0-0.4,0.4-0.8,0.7-1c1.3-1.2,1.1-2.8,1-4.3c0-0.5-0.4-0.9-0.6-1.3
	c-0.5,0.3-0.9,0.5-1.4,0.8c-0.9,0.4-1.7,1-2.7,1.1c-1.1,0.2-2.2,0-3.3,0.2c-0.7,0.1-1.8,0.6-1.8,1.1c-0.2,1.8-0.4,3.8,0.2,5.5
	c0.3,0.8,2.3,1,3.5,1.4C109.2,316.4,110.9,315.9,111.2,313.2z M282.5,57.2c0,0.3,0,0.6,0.2,0.7c0.4,0.4,0.7,1,1.2,1.2
	c2.4,1,6.5,0.1,7.8-2c0.7-1.1,0.8-2.7,0.7-4.1c-0.2-1.5-1.8-1.3-2.9-1.4c-0.6,0-1.2,0-1.8,0C282.6,51.7,281.8,52.6,282.5,57.2z
	 M80.1,51.7c-2.5,0.1-2.9,0.6-3,3.1c-0.2,4.2,0.2,4.7,4.6,4.6c0.3,0,0.5,0,0.8,0c2.2,0.2,3.5-1.3,4.5-2.9c1.4-2.4,0.1-4.6-2.7-4.7
	c-0.7,0-1.4,0-2.1,0C81.5,51.7,80.8,51.7,80.1,51.7z M185,0.4c-1,0-2.1-0.2-3.1,0.1c-0.7,0.2-1.7,0.7-1.9,1.3
	c-1.6,3.9,0.1,6.3,4.2,6.2c0.3,0,0.5,0,0.8,0c2.2,0.2,3.5-1.3,4.5-2.8c1.6-2.4,0.2-4.8-2.7-4.9C186.2,0.4,185.6,0.4,185,0.4
	C185,0.4,185,0.4,185,0.4z M238.3,367.5c1-0.3,2.5-0.6,2.7-1.3c0.3-1.2,0-2.6-0.4-3.9c-0.2-0.6-0.9-1.2-1.6-1.6
	c-2.1-1.4-4.5-1.1-6.7-0.5c-1.9,0.6-1.2,2.6-1.2,4c0,2.8,0.5,3.2,3.3,3.3c0.6,0,1.2,0,1.8,0C236.9,367.5,237.7,367.7,238.3,367.5z
	 M186.3,367.5c1.3-0.1,3,0.4,3.5-1.4c0.5-1.6,0.2-3-1-4.5c-1.9-2.2-4.3-1.7-6.6-1.7c-1.6,0-2.2,0.9-2.4,2.4
	c-0.4,4.6,0.1,5.2,4.7,5.2c0.1,0,0.2,0,0.3,0C185.3,367.5,185.8,367.6,186.3,367.5z M284.1,308.7c-1.2,0.7-2.9,1.8-2.9,2.7
	c0,1.4,1,3.1,2.1,4.1c0.8,0.7,2.4,0.6,3.6,0.6c3,0.1,5.8-2,5.7-3.9c-0.1-1.9-2.9-3.7-5.7-3.8C286,308.5,284.9,308.2,284.1,308.7z
	 M256.8,29.7c0,3,2,6.4,3.8,6.5c1.9,0,4.4-3.4,4.4-6.1c0-3.6-0.3-4-3.9-4C257.2,26,256.8,26.4,256.8,29.7z M261.2,334.2
	c-0.9,0-1.7,0-2.5,0.1c-0.5,0.1-1.2,0.4-1.5,0.9c-1.4,2,0.3,7.8,2.6,8.8c0.5,0.2,1.6,0.3,1.9-0.1c1.5-1.7,4.1-2.8,3.3-5.5
	C265,334.6,264.6,334.2,261.2,334.2z M109.5,334.4c-1.7-0.4-3.5-0.1-5.3,0c-0.4,0-0.9,0.5-1.1,0.9c-1.2,2.2,0.4,7.6,2.6,8.6
	c0.5,0.3,1.6,0.3,1.9,0c1.6-1.7,4.1-2.9,3.3-5.9C110.8,336.7,111.4,334.8,109.5,334.4z M109.1,26.2c-1.5-0.2-3.1-0.1-4.6,0
	c-0.5,0.1-1.2,0.6-1.5,1.2c-1.1,2.3,0.4,7.2,2.6,8.4c0.5,0.3,1.6,0.4,1.9,0c1.6-1.6,4.1-2.8,3.4-5.8
	C110.7,28.6,111.5,26.5,109.1,26.2z M79,308.6c-0.6,0.2-1.4,0.7-1.7,1.3c-1.6,3.9,0.1,6.3,4.2,6.2c2.8,0,5.5-1.8,5.6-3.8
	c0.1-2-2.6-3.9-6.3-3.9C80.6,308.5,79.7,308.4,79,308.6z M337.9,110.8c0.8,0,1.5,0,2.3-0.1c2.3-0.4,4.3-3.1,3.4-4.8
	c-1.2-2.3-6.6-3.8-8.8-2.4c-0.3,0.2-0.7,0.5-0.7,0.7c0,1.8-0.4,3.8,0.2,5.5c0.3,0.8,2.2,1,3.4,1.4
	C337.8,111,337.9,110.9,337.9,110.8z M29.7,264.9c0.9-0.1,1.7,0,2.5-0.2c2.4-0.5,4.1-3.3,3.2-4.9c-1.3-2.3-6.4-3.7-8.7-2.3
	c-0.3,0.2-0.7,0.4-0.7,0.7c-0.1,1.8-0.4,3.8,0.1,5.5c0.2,0.8,2.2,1,3.4,1.5C29.6,265.1,29.7,265,29.7,264.9z M340.4,264.7
	c2.3-0.5,4.1-3.3,3.2-4.9c-1.3-2.3-6.5-3.6-8.7-2.3c-0.4,0.2-0.8,0.8-0.9,1.2c-0.1,1.5-0.2,3.1,0,4.6c0.1,0.5,0.9,1.2,1.5,1.4
	c0.8,0.3,1.7,0.2,2.5,0.2C338.9,264.8,339.7,264.9,340.4,264.7z M29.7,110.8c0.8-0.1,1.7,0,2.5-0.2c2.4-0.5,4.2-3.2,3.2-4.9
	c-1.3-2.3-6.4-3.7-8.7-2.4c-0.3,0.2-0.7,0.4-0.7,0.7c-0.1,1.8-0.4,3.8,0.1,5.5c0.2,0.8,2.2,1.1,3.4,1.6
	C29.6,111,29.7,110.9,29.7,110.8z M362,138.1c1.1,0.7,2.9,0.8,4.3,0.5c1.5-0.2,1.3-1.8,1.3-3c0-2.8-2.8-4.1-3.4-6.5
	c0-0.2-0.6-0.3-0.9-0.3c-2.8-0.6-3.8,0.4-3.8,3.8C359.5,135.2,359.9,136.8,362,138.1z M72.2,40.4c-0.1-0.4-1.3-0.9-1.3-0.8
	c-1.8,2-4,3.3-6.5,4.3c-0.5,0.2-0.9,0.8-1.3,1.3c-0.2,0.3-0.4,0.9-0.2,1.1c1.1,1.3,1.8,2.8,3.9,2.9c5.2,0.2,5.6,0,5.6-5.2
	C72.4,42.8,72.5,41.6,72.2,40.4z M138.4,366c0.6-1.4,0.3-2.9-0.8-4.3c-1.7-2-3.8-2-6-2c-1.5,0-2.9,0.1-3.1,2.1
	c-0.2,2.1,0.2,2.8,2.3,3.6c0.6,0.2,1.2,0.6,1.8,0.9c1,0.5,1.9,0.9,3.3,1.5C136.7,367.3,138,366.9,138.4,366z M59.3,109.4
	c0.4-1.5,0.2-3.2,0-4.8c-0.1-0.5-1-1.2-1.6-1.3c-1.5-0.2-3.1-0.1-4.6,0c-0.5,0-1.3,0.6-1.4,0.9c-0.2,1.8-0.5,3.8,0.1,5.5
	c0.2,0.8,2.2,1,2.9,1.3C56.8,110.6,58.8,111.4,59.3,109.4z M59.6,313.1c0.2-4.3-0.3-4.8-4.7-4.6c-0.6,0-1.2,0-1.8,0.2
	c-0.5,0.2-1.3,0.6-1.3,1c-0.1,1.8-0.4,3.8,0.2,5.5c0.3,0.8,2.2,1,3.5,1.4C59,316.2,59.5,315.8,59.6,313.1z M43.5,72.2
	c1.1,0,2.2,0.1,3.3,0c0.6-0.1,1.3-0.5,1.7-1c1.3-1.9-0.2-7.3-2.2-8.5c-0.3-0.2-0.9-0.1-1.1,0.1c-0.9,1.2-1.7,2.5-2.5,3.8
	c-0.4,0.7-0.7,1.5-1.2,2.2c-0.7,1-1.5,2-2.2,2.9c1.3,0.2,2.6,0.4,3.9,0.6C43.3,72.3,43.4,72.3,43.5,72.2
	C43.5,72.2,43.5,72.2,43.5,72.2z M209.7,0.4c-0.7,0-1.4,0-2,0c-1.3,0.1-2.1,0.7-2.1,2c0,1.2-0.2,2.4,0.1,3.5c0.2,0.7,1,1.7,1.7,1.8
	c1.5,0.3,3,0.2,4.6,0.1c0.5,0,1.4-0.5,1.4-0.9c0.2-1.8,0.5-3.8,0-5.5C213,0.8,211,0.5,209.9,0C209.8,0.1,209.7,0.3,209.7,0.4z
	 M162.3,4.2c0-3.4-0.4-3.8-3.8-3.8c-0.8,0-1.7,0-2.5,0.1c-0.5,0.1-1.4,0.5-1.4,0.9c-0.2,1.8-0.5,3.8,0,5.5c0.2,0.8,2.2,1.1,3.3,1.6
	C161.9,8.1,162.3,7.8,162.3,4.2z M316.3,55.5c0-0.5,0-1,0-1.5c-0.1-1.6-1.1-2.3-2.5-2.2c-1.9,0.2-4.4-1.1-5.4,1.5
	c-0.5,1.3-0.2,3,0,4.5c0.1,0.6,0.9,1.2,1.5,1.4c0.8,0.3,1.7,0.2,1.9,0.2C316,59.4,316.3,59,316.3,55.5z M110.7,58
	c0.4-1.5,0.2-3.2,0-4.8c-0.1-0.5-1-1.2-1.6-1.3c-1.5-0.2-3.1-0.1-4.6,0c-0.5,0-1.3,0.5-1.4,0.9c-0.2,1.8-0.5,3.8,0.1,5.5
	c0.2,0.8,2.2,1,3,1.4C108.1,59.1,110.1,60,110.7,58z M3.9,213.4c0.8,0,1.6,0.2,2.3-0.1c0.7-0.3,1.7-1,1.9-1.7c1.2-4.4-0.1-6-4.6-5.9
	c-0.6,0-1.2,0-1.8,0.2c-0.5,0.1-1.2,0.5-1.2,0.8c-0.2,1.8-0.5,3.8,0,5.5c0.2,0.8,2.1,1.1,3.3,1.7C3.8,213.7,3.9,213.6,3.9,213.4z
	 M0.5,155.7c-0.6,1.5-0.3,3.5-0.1,5.2c0,0.4,1,1,1.5,1.1c1.5,0.1,3.1,0.1,4.6,0c0.5,0,1.3-0.6,1.4-0.9c0.1-1.8,0.4-3.8-0.1-5.5
	c-0.2-0.8-2.2-1-3.6-1.6C2.8,154.5,0.8,154.8,0.5,155.7z M333.9,83c0.9,1.5,1.7,3.1,2.9,4.3c0.9,0.9,4.8-1.9,5-3.6
	c0.1-0.9-3.3-5.9-4.2-6.1c-2.8-0.6-3.8,0.4-3.8,3.7C333.9,81.8,333.6,82.5,333.9,83z M80.9,334.2c-1.6,0.1-3.4-0.3-3.7,2
	c-0.3,2.1,0.2,2.8,2.6,3.8c0.7,0.3,1.2,0.8,1.9,1.3c1.6,1,3.1,0.6,4.8-1.5c1.1-1.4,1-2.2-0.3-3.8c-1.3-1.5-2.8-2.1-4.4-1.9
	C81.2,334.2,81,334.1,80.9,334.2z M367.7,209.7c0-3.3-0.5-3.9-3.2-3.9c-2.8,0-4.9,2-5,4.7c0,2.5,0.6,3,4.1,3
	C367.3,213.5,367.7,213.1,367.7,209.7z M162.3,363.8c0-3.4-0.4-4-3.1-4c-2.9,0-5.1,2.1-5,4.9c0,2.3,0.7,2.8,4,2.8
	C161.9,367.5,162.3,367.2,162.3,363.8z M213.6,363.9c0-3.4-0.4-4-3-4c-2.9,0-5.1,2-5.1,4.8c0,2.4,0.7,2.9,3.9,2.9
	C213.2,367.5,213.6,367.2,213.6,363.9z M367.1,161.2c0.5-1.8,0.5-4,0-5.9c-0.2-0.6-2.6-0.9-3.9-0.7c-2.2,0.2-3.8,2.7-3.6,5.1
	c0.2,2,0.8,2.4,4,2.7C364.7,162,366.9,161.9,367.1,161.2z M316.3,312.5c0-3.4-0.4-4-3.1-4c-2.9,0-5.1,2.1-5,4.9c0,2.3,0.7,2.8,4,2.8
	C315.9,316.2,316.3,315.8,316.3,312.5z M59.6,55.5c0-3.2-0.5-3.8-3.1-3.8c-2.9,0-5.1,2.2-5.1,4.9c0.1,2.3,0.7,2.7,4.1,2.7
	C59.2,59.4,59.6,59.1,59.6,55.5z M346.8,275.9c0.2,0.6,0.9,1.4,1.4,1.4c0.5,0.1,1.6-0.5,1.7-1c0.6-2.3,2.2-3.7,3.9-5.2
	c0.5-0.5,0.8-1.7,0.6-2.4c-0.2-0.6-1.2-1.1-1.9-1.2c-3.5-0.5-5.9,2.1-5.9,6.6C346.7,274.4,346.6,275.3,346.8,275.9z M282.5,29.8
	c0,0.3,0,0.5,0,0.8c-0.2,2.5,1.2,4.4,3.2,5.4c2,1.1,2.7-1.3,3.8-2.3c1.5-1.2,1.5-2.4-0.1-3.5c-1.6-1.1-3.5-1.7-5-2.9
	c-1.5-1.1-1.7-0.4-1.8,0.9C282.5,28.7,282.5,29.2,282.5,29.8C282.5,29.8,282.5,29.8,282.5,29.8z M28.2,282.8
	c-0.6,0.1-1.2,0.4-1.8,0.7c0.3,0.5,0.6,0.9,1,1.4c0.8,1.2,1.8,2.2,2.4,3.5c0.5,1,0.7,1.9,2,2c1.8,0.1,2.8-1.2,3.6-2.4
	c0.4-0.6,0.3-2-0.1-2.7c-1.2-1.9-3.1-2.9-5.1-2.4C29.2,282.8,28.7,282.7,28.2,282.8z M273.7,347c-0.5,0-1,0-1.5,0
	c-3,0.2-5.1,2.9-4.6,5.8c0.2,1,0.4,1.5,1.7,0.8c2.3-1.2,4.7-2.1,7-3.3c0.6-0.3,1.2-1.1,1.2-1.6c0-0.5-0.7-1.3-1.3-1.5
	C275.5,346.9,274.6,347,273.7,347C273.7,347,273.7,347,273.7,347z M34.3,79.7c-0.8,0-2,0.3-2.4,0.9c-1.1,1.4-1.9,3.1-2.8,4.7
	c-0.3,0.6-0.4,1.3-0.6,1.9c0.8-0.1,1.9,0,2.5-0.4c1.4-1,2.5-2.2,3.7-3.5c0.5-0.5,0.8-1.2,1.5-2.1C35.5,80.6,34.9,79.7,34.3,79.7z
	 M85.5,28.9c-0.9,0.5-2,0.8-2.9,1.4c-1.1,0.8-2.3,1.7-3.1,2.9c-0.4,0.5-0.1,1.9,0.4,2.5c0.3,0.4,1.7,0.4,2.2,0
	c1.5-1.2,2.9-2.6,4.2-4c0.4-0.5,0.7-1.1,0.9-1.6C87,29,86.8,28.1,85.5,28.9z M346.7,95.3c0,0.7,0,1.4,0,2c0.1,2.7,1.7,3.8,4.2,3
	c0.9-0.3,1.1-0.7,0.6-1.7c-1.2-2.3-2.3-4.6-3.4-6.9c-0.1-0.3-0.4-0.5-0.6-0.7c-0.2,0.2-0.6,0.5-0.6,0.7
	C346.7,92.9,346.7,94.1,346.7,95.3C346.6,95.3,346.6,95.3,346.7,95.3z M94.1,347.1c-0.5,0.1-0.9,0.3-1.4,0.5
	c0.3,0.5,0.4,1.1,0.8,1.4c1.7,1.1,3.5,2.2,5.4,3.1c0.2,0.1,1-0.6,1.1-1c0.9-2.8-0.3-4.1-3.9-4C95.4,347,94.8,347,94.1,347.1z
	 M8.2,235.5c0-0.5,0-1,0-1.5c-0.1-1.3-0.5-2.4-2-2.4c-1.6,0-2,1.1-2,2.4c0,0.7-0.1,1.5,0.3,2c0.8,1,1.9,1.8,2.8,2.7
	c0.4-1,0.9-2,1.3-3C8.5,235.6,8.3,235.5,8.2,235.5z"/>
</svg>
